Sarala-Regular.ufo
<glyph name="percent" format="1">
  <advance width="974"/>
  <unicode hex="0025"/>
  <outline>
    <contour>
      <point x="667" y="738" type="line"/>
      <point x="240" y="-1" type="line"/>
      <point x="307" y="-38" type="line"/>
      <point x="734" y="701" type="line"/>
    </contour>
    <contour>
      <point x="29" y="331"/>
      <point x="88" y="252"/>
      <point x="199" y="252" type="curve" smooth="yes"/>
      <point x="310" y="252"/>
      <point x="371" y="333"/>
      <point x="371" y="481" type="curve" smooth="yes"/>
      <point x="371" y="628"/>
      <point x="311" y="707"/>
      <point x="199" y="707" type="curve" smooth="yes"/>
      <point x="87" y="707"/>
      <point x="29" y="630"/>
      <point x="29" y="481" type="curve" smooth="yes"/>
    </contour>
    <contour>
      <point x="287" y="370"/>
      <point x="258" y="317"/>
      <point x="199" y="317" type="curve" smooth="yes"/>
      <point x="142" y="317"/>
      <point x="112" y="370"/>
      <point x="112" y="481" type="curve" smooth="yes"/>
      <point x="112" y="590"/>
      <point x="141" y="643"/>
      <point x="199" y="643" type="curve" smooth="yes"/>
      <point x="258" y="643"/>
      <point x="287" y="590"/>
      <point x="287" y="481" type="curve" smooth="yes"/>
    </contour>
    <contour>
      <point x="603" y="71"/>
      <point x="662" y="-8"/>
      <point x="773" y="-8" type="curve" smooth="yes"/>
      <point x="884" y="-8"/>
      <point x="945" y="73"/>
      <point x="945" y="221" type="curve" smooth="yes"/>
      <point x="945" y="368"/>
      <point x="885" y="447"/>
      <point x="773" y="447" type="curve" smooth="yes"/>
      <point x="661" y="447"/>
      <point x="603" y="370"/>
      <point x="603" y="221" type="curve" smooth="yes"/>
    </contour>
    <contour>
      <point x="861" y="110"/>
      <point x="832" y="57"/>
      <point x="773" y="57" type="curve" smooth="yes"/>
      <point x="716" y="57"/>
      <point x="686" y="110"/>
      <point x="686" y="221" type="curve" smooth="yes"/>
      <point x="686" y="330"/>
      <point x="715" y="383"/>
      <point x="773" y="383" type="curve" smooth="yes"/>
      <point x="832" y="383"/>
      <point x="861" y="330"/>
      <point x="861" y="221" type="curve" smooth="yes"/>
    </contour>
  </outline>
</glyph>
<glyph name="ampersand" format="1">
  <advance width="642"/>
  <unicode hex="0026"/>
  <outline>
    <contour>
      <point x="577" y="2" type="line"/>
      <point x="640" y="70" type="line"/>
      <point x="538" y="159" type="line"/>
      <point x="564" y="217"/>
      <point x="577" y="289"/>
      <point x="577" y="373" type="curve"/>
      <point x="483" y="373" type="line"/>
      <point x="483" y="314"/>
      <point x="477" y="265"/>
      <point x="466" y="223" type="curve"/>
      <point x="285" y="382" type="line" smooth="yes"/>
      <point x="203" y="453"/>
      <point x="179" y="492"/>
      <point x="179" y="543" type="curve" smooth="yes"/>
      <point x="179" y="591"/>
      <point x="228" y="631"/>
      <point x="291" y="631" type="curve" smooth="yes"/>
      <point x="357" y="631"/>
      <point x="405" y="596"/>
      <point x="405" y="548" type="curve"/>
      <point x="499" y="548" type="line"/>
      <point x="499" y="646"/>
      <point x="419" y="713"/>
      <point x="291" y="713" type="curve" smooth="yes"/>
      <point x="163" y="713"/>
      <point x="83" y="633"/>
      <point x="83" y="543" type="curve" smooth="yes"/>
      <point x="83" y="484"/>
      <point x="101" y="438"/>
      <point x="147" y="387" type="curve"/>
      <point x="65" y="340"/>
      <point x="24" y="274"/>
      <point x="24" y="188" type="curve" smooth="yes"/>
      <point x="24" y="67"/>
      <point x="120" y="-11"/>
      <point x="268" y="-11" type="curve" smooth="yes"/>
      <point x="362" y="-11"/>
      <point x="437" y="21"/>
      <point x="489" y="80" type="curve"/>
    </contour>
    <contour>
      <point x="181" y="71"/>
      <point x="120" y="120"/>
      <point x="120" y="188" type="curve" smooth="yes"/>
      <point x="120" y="244"/>
      <point x="150" y="292"/>
      <point x="210" y="327" type="curve"/>
      <point x="424" y="138" type="line"/>
      <point x="388" y="93"/>
      <point x="337" y="71"/>
      <point x="268" y="71" type="curve" smooth="yes"/>
    </contour>
  </outline>
</glyph>
<glyph name="parenright" format="1">
  <advance width="279"/>
  <unicode hex="0029"/>
  <outline>
    <contour>
      <point x="17" y="756" type="line"/>
      <point x="110" y="584"/>
      <point x="147" y="451"/>
      <point x="147" y="285" type="curve" smooth="yes"/>
      <point x="147" y="122"/>
      <point x="111" y="-8"/>
      <point x="17" y="-186" type="curve"/>
      <point x="73" y="-222" type="line"/>
      <point x="189" y="-40"/>
      <point x="237" y="107"/>
      <point x="237" y="285" type="curve" smooth="yes"/>
      <point x="237" y="460"/>
      <point x="190" y="605"/>
      <point x="73" y="792" type="curve"/>
    </contour>
  </outline>
</glyph>
<glyph name="plus" format="1">
  <advance width="549"/>
  <unicode hex="002B"/>
  <outline>
    <contour>
      <point x="41" y="271" type="line"/>
      <point x="230" y="271" type="line"/>
      <point x="230" y="71" type="line"/>
      <point x="314" y="71" type="line"/>
      <point x="314" y="271" type="line"/>
      <point x="508" y="271" type="line"/>
      <point x="508" y="343" type="line"/>
      <point x="314" y="343" type="line"/>
      <point x="314" y="542" type="line"/>
      <point x="230" y="542" type="line"/>
      <point x="230" y="343" type="line"/>
      <point x="41" y="343" type="line"/>
    </contour>
  </outline>
</glyph>
<glyph name="comma" format="1">
  <advance width="207"/>
  <unicode hex="002C"/>
  <outline>
    <contour>
      <point x="171" y="100" type="line"/>
      <point x="77" y="100" type="line"/>
      <point x="22" y="-123" type="line"/>
      <point x="82" y="-123" type="line"/>
    </contour>
  </outline>
</glyph>
<glyph name="three" format="1">
  <advance width="518"/>
  <unicode hex="0033"/>
  <outline>
    <contour>
      <point x="402" y="389"/>
      <point x="449" y="442"/>
      <point x="449" y="525" type="curve" smooth="yes"/>
      <point x="449" y="638"/>
      <point x="363" y="706"/>
      <point x="218" y="706" type="curve" smooth="yes"/>
      <point x="154" y="706"/>
      <point x="89" y="693"/>
      <point x="29" y="668" type="curve"/>
      <point x="47" y="588" type="line"/>
      <point x="109" y="610"/>
      <point x="169" y="622"/>
      <point x="215" y="622" type="curve" smooth="yes"/>
      <point x="300" y="622"/>
      <point x="349" y="586"/>
      <point x="349" y="523" type="curve" smooth="yes"/>
      <point x="349" y="446"/>
      <point x="289" y="404"/>
      <point x="180" y="404" type="curve" smooth="yes"/>
      <point x="150" y="404" type="line"/>
      <point x="150" y="322" type="line"/>
      <point x="186" y="322" type="line" smooth="yes"/>
      <point x="306" y="322"/>
      <point x="364" y="280"/>
      <point x="364" y="195" type="curve" smooth="yes"/>
      <point x="364" y="120"/>
      <point x="304" y="78"/>
      <point x="196" y="78" type="curve" smooth="yes"/>
      <point x="150" y="78"/>
      <point x="94" y="85"/>
      <point x="54" y="97" type="curve"/>
      <point x="38" y="15" type="line"/>
      <point x="90" y="1"/>
      <point x="146" y="-7"/>
      <point x="196" y="-7" type="curve" smooth="yes"/>
      <point x="364" y="-7"/>
      <point x="464" y="68"/>
      <point x="464" y="194" type="curve" smooth="yes"/>
      <point x="464" y="288"/>
      <point x="410" y="350"/>
      <point x="314" y="370" type="curve"/>
    </contour>
  </outline>
</glyph>
<glyph name="question" format="1">
  <advance width="409"/>
  <unicode hex="003F"/>
  <outline>
    <contour>
      <point x="298" y="382"/>
      <point x="101" y="457"/>
      <point x="101" y="154" type="curve"/>
      <point x="193" y="154" type="line"/>
      <point x="193" y="409"/>
      <point x="394" y="327"/>
      <point x="394" y="538" type="curve" smooth="yes"/>
      <point x="394" y="654"/>
      <point x="314" y="723"/>
      <point x="178" y="723" type="curve" smooth="yes"/>
      <point x="121" y="723"/>
      <point x="56" y="707"/>
      <point x="-4" y="677" type="curve"/>
      <point x="28" y="599" type="line"/>
      <point x="90" y="625"/>
      <point x="138" y="637"/>
      <point x="177" y="637" type="curve" smooth="yes"/>
      <point x="252" y="637"/>
      <point x="298" y="599"/>
      <point x="298" y="538" type="curve" smooth="yes"/>
    </contour>
    <contour>
      <point x="198" y="100" type="line"/>
      <point x="98" y="100" type="line"/>
      <point x="98" y="0" type="line"/>
      <point x="198" y="0" type="line"/>
    </contour>
  </outline>
</glyph>
<glyph name="D" format="1">
  <advance width="710"/>
  <unicode hex="0044"/>
  <outline>
    <contour>
      <point x="93" y="708" type="line"/>
      <point x="93" y="0" type="line"/>
      <point x="322" y="0" type="line" smooth="yes"/>
      <point x="540" y="0"/>
      <point x="662" y="128"/>
      <point x="662" y="356" type="curve" smooth="yes"/>
      <point x="662" y="584"/>
      <point x="542" y="708"/>
      <point x="322" y="708" type="curve" smooth="yes"/>
    </contour>
    <contour>
      <point x="189" y="85" type="line"/>
      <point x="189" y="623" type="line"/>
      <point x="322" y="623" type="line" smooth="yes"/>
      <point x="479" y="623"/>
      <point x="562" y="531"/>
      <point x="562" y="356" type="curve" smooth="yes"/>
      <point x="562" y="179"/>
      <point x="478" y="85"/>
      <point x="322" y="85" type="curve" smooth="yes"/>
    </contour>
  </outline>
</glyph>
<glyph name="H" format="1">
  <advance width="740"/>
  <unicode hex="0048"/>
  <outline>
    <contour>
      <point x="189" y="708" type="line"/>
      <point x="93" y="708" type="line"/>
      <point x="93" y="0" type="line"/>
      <point x="189" y="0" type="line"/>
      <point x="189" y="325" type="line"/>
      <point x="551" y="325" type="line"/>
      <point x="551" y="0" type="line"/>
      <point x="647" y="0" type="line"/>
      <point x="647" y="708" type="line"/>
      <point x="551" y="708" type="line"/>
      <point x="551" y="410" type="line"/>
      <point x="189" y="410" type="line"/>
    </contour>
  </outline>
</glyph>
<glyph name="I" format="1">
  <advance width="282"/>
  <unicode hex="0049"/>
  <outline>
    <contour>
      <point x="189" y="708" type="line"/>
      <point x="93" y="708" type="line"/>
      <point x="93" y="0" type="line"/>
      <point x="189" y="0" type="line"/>
    </contour>
  </outline>
</glyph>
<glyph name="K" format="1">
  <advance width="641"/>
  <unicode hex="004B"/>
  <outline>
    <contour>
      <point x="189" y="708" type="line"/>
      <point x="93" y="708" type="line"/>
      <point x="93" y="0" type="line"/>
      <point x="189" y="0" type="line"/>
    </contour>
    <contour>
      <point x="492" y="708" type="line"/>
      <point x="210" y="382" type="line"/>
      <point x="512" y="0" type="line"/>
      <point x="634" y="0" type="line"/>
      <point x="329" y="384" type="line"/>
      <point x="609" y="708" type="line"/>
    </contour>
  </outline>
</glyph>
<glyph name="L" format="1">
  <advance width="523"/>
  <unicode hex="004C"/>
  <outline>
    <contour>
      <point x="189" y="708" type="line"/>
      <point x="93" y="708" type="line"/>
      <point x="93" y="0" type="line"/>
      <point x="512" y="0" type="line"/>
      <point x="512" y="85" type="line"/>
      <point x="189" y="85" type="line"/>
    </contour>
  </outline>
</glyph>
<glyph name="M" format="1">
  <advance width="904"/>
  <unicode hex="004D"/>
  <outline>
    <contour>
      <point x="856" y="0" type="line"/>
      <point x="766" y="708" type="line"/>
      <point x="647" y="708" type="line"/>
      <point x="519" y="334" type="line" smooth="yes"/>
      <point x="497" y="268"/>
      <point x="474" y="193"/>
      <point x="452" y="128" type="curve"/>
      <point x="430" y="193"/>
      <point x="407" y="268"/>
      <point x="385" y="334" type="curve" smooth="yes"/>
      <point x="257" y="708" type="line"/>
      <point x="138" y="708" type="line"/>
      <point x="48" y="0" type="line"/>
      <point x="139" y="0" type="line"/>
      <point x="182" y="344" type="line" smooth="yes"/>
      <point x="192" y="423"/>
      <point x="202" y="513"/>
      <point x="212" y="592" type="curve"/>
      <point x="212" y="592"/>
      <point x="258" y="436"/>
      <point x="290" y="344" type="curve" smooth="yes"/>
      <point x="404" y="20" type="line"/>
      <point x="500" y="20" type="line"/>
      <point x="614" y="344" type="line" smooth="yes"/>
      <point x="643" y="426"/>
      <point x="692" y="592"/>
      <point x="692" y="592" type="curve"/>
      <point x="702" y="513"/>
      <point x="712" y="423"/>
      <point x="722" y="344" type="curve" smooth="yes"/>
      <point x="765" y="0" type="line"/>
    </contour>
  </outline>
</glyph>
<glyph name="N" format="1">
  <advance width="737"/>
  <unicode hex="004E"/>
  <outline>
    <contour>
      <point x="644" y="708" type="line"/>
      <point x="553" y="708" type="line"/>
      <point x="553" y="154" type="line"/>
      <point x="515" y="216"/>
      <point x="478" y="277"/>
      <point x="436" y="336" type="curve" smooth="yes"/>
      <point x="174" y="708" type="line"/>
      <point x="93" y="708" type="line"/>
      <point x="93" y="0" type="line"/>
      <point x="184" y="0" type="line"/>
      <point x="184" y="556" type="line"/>
      <point x="219" y="497"/>
      <point x="255" y="438"/>
      <point x="294" y="382" type="curve" smooth="yes"/>
      <point x="563" y="0" type="line"/>
      <point x="644" y="0" type="line"/>
    </contour>
  </outline>
</glyph>
<glyph name="Q" format="1">
  <advance width="739"/>
  <unicode hex="0051"/>
  <outline>
    <contour>
      <point x="453" y="-127"/>
      <point x="408" y="-89"/>
      <point x="393" y="-9" type="curve"/>
      <point x="585" y="0"/>
      <point x="691" y="130"/>
      <point x="691" y="357" type="curve" smooth="yes"/>
      <point x="691" y="585"/>
      <point x="574" y="716"/>
      <point x="370" y="716" type="curve" smooth="yes"/>
      <point x="165" y="716"/>
      <point x="48" y="586"/>
      <point x="48" y="357" type="curve" smooth="yes"/>
      <point x="48" y="143"/>
      <point x="141" y="17"/>
      <point x="311" y="-6" type="curve"/>
      <point x="327" y="-137"/>
      <point x="405" y="-214"/>
      <point x="527" y="-214" type="curve" smooth="yes"/>
      <point x="561" y="-214"/>
      <point x="597" y="-208"/>
      <point x="634" y="-196" type="curve"/>
      <point x="606" y="-114" type="line"/>
      <point x="580" y="-123"/>
      <point x="556" y="-127"/>
      <point x="533" y="-127" type="curve" smooth="yes"/>
    </contour>
    <contour>
      <point x="148" y="531"/>
      <point x="226" y="626"/>
      <point x="370" y="626" type="curve" smooth="yes"/>
      <point x="512" y="626"/>
      <point x="591" y="530"/>
      <point x="591" y="357" type="curve" smooth="yes"/>
      <point x="591" y="179"/>
      <point x="512" y="80"/>
      <point x="370" y="80" type="curve" smooth="yes"/>
      <point x="227" y="80"/>
      <point x="148" y="178"/>
      <point x="148" y="357" type="curve" smooth="yes"/>
    </contour>
  </outline>
</glyph>
<glyph name="Z" format="1">
  <advance width="538"/>
  <unicode hex="005A"/>
  <outline>
    <contour>
      <point x="387" y="627" type="line"/>
      <point x="30" y="75" type="line"/>
      <point x="30" y="0" type="line"/>
      <point x="502" y="0" type="line"/>
      <point x="502" y="83" type="line"/>
      <point x="148" y="83" type="line"/>
      <point x="507" y="637" type="line"/>
      <point x="507" y="708" type="line"/>
      <point x="42" y="708" type="line"/>
      <point x="42" y="627" type="line"/>
    </contour>
  </outline>
</glyph>
<glyph name="b" format="1">
  <advance width="592"/>
  <unicode hex="0062"/>
  <outline>
    <contour>
      <point x="177" y="750" type="line"/>
      <point x="83" y="750" type="line"/>
      <point x="83" y="32" type="line"/>
      <point x="134" y="8"/>
      <point x="215" y="-8"/>
      <point x="285" y="-8" type="curve" smooth="yes"/>
      <point x="450" y="-8"/>
      <point x="549" y="95"/>
      <point x="549" y="266" type="curve" smooth="yes"/>
      <point x="549" y="430"/>
      <point x="467" y="523"/>
      <point x="323" y="523" type="curve" smooth="yes"/>
      <point x="266" y="523"/>
      <point x="215" y="500"/>
      <point x="177" y="457" type="curve"/>
    </contour>
    <contour>
      <point x="404" y="440"/>
      <point x="453" y="377"/>
      <point x="453" y="266" type="curve" smooth="yes"/>
      <point x="453" y="146"/>
      <point x="390" y="75"/>
      <point x="284" y="75" type="curve" smooth="yes"/>
      <point x="244" y="75"/>
      <point x="209" y="81"/>
      <point x="177" y="94" type="curve"/>
      <point x="177" y="340" type="line"/>
      <point x="196" y="402"/>
      <point x="249" y="440"/>
      <point x="317" y="440" type="curve" smooth="yes"/>
    </contour>
  </outline>
</glyph>
<glyph name="i" format="1">
  <advance width="258"/>
  <unicode hex="0069"/>
  <outline>
    <contour>
      <point x="176" y="704" type="line"/>
      <point x="82" y="704" type="line"/>
      <point x="82" y="608" type="line"/>
      <point x="176" y="608" type="line"/>
    </contour>
    <contour>
      <point x="176" y="514" type="line"/>
      <point x="82" y="514" type="line"/>
      <point x="82" y="0" type="line"/>
      <point x="176" y="0" type="line"/>
    </contour>
  </outline>
</glyph>
<glyph name="j" format="1">
  <advance width="260"/>
  <unicode hex="006A"/>
  <outline>
    <contour>
      <point x="179" y="704" type="line"/>
      <point x="85" y="704" type="line"/>
      <point x="85" y="608" type="line"/>
      <point x="179" y="608" type="line"/>
    </contour>
    <contour>
      <point x="34" y="-182" type="line"/>
      <point x="135" y="-90"/>
      <point x="179" y="-9"/>
      <point x="179" y="88" type="curve" smooth="yes"/>
      <point x="179" y="514" type="line"/>
      <point x="85" y="514" type="line"/>
      <point x="85" y="88" type="line" smooth="yes"/>
      <point x="85" y="20"/>
      <point x="54" y="-46"/>
      <point x="-20" y="-138" type="curve"/>
    </contour>
  </outline>
</glyph>
<glyph name="k" format="1">
  <advance width="528"/>
  <unicode hex="006B"/>
  <outline>
    <contour>
      <point x="177" y="755" type="line"/>
      <point x="83" y="755" type="line"/>
      <point x="83" y="0" type="line"/>
      <point x="177" y="0" type="line"/>
    </contour>
    <contour>
      <point x="380" y="514" type="line"/>
      <point x="190" y="291" type="line"/>
      <point x="412" y="0" type="line"/>
      <point x="527" y="0" type="line"/>
      <point x="304" y="296" type="line"/>
      <point x="491" y="514" type="line"/>
    </contour>
  </outline>
</glyph>
<glyph name="l" format="1">
  <advance width="260"/>
  <unicode hex="006C"/>
  <outline>
    <contour>
      <point x="177" y="750" type="line"/>
      <point x="83" y="750" type="line"/>
      <point x="83" y="0" type="line"/>
      <point x="177" y="0" type="line"/>
    </contour>
  </outline>
</glyph>
<glyph name="v" format="1">
  <advance width="502"/>
  <unicode hex="0076"/>
  <outline>
    <contour>
      <point x="493" y="514" type="line"/>
      <point x="398" y="514" type="line"/>
      <point x="300" y="240" type="line" smooth="yes"/>
      <point x="282" y="189"/>
      <point x="268" y="140"/>
      <point x="253" y="94" type="curve"/>
      <point x="238" y="140"/>
      <point x="224" y="190"/>
      <point x="206" y="240" type="curve" smooth="yes"/>
      <point x="108" y="514" type="line"/>
      <point x="9" y="514" type="line"/>
      <point x="192" y="0" type="line"/>
      <point x="310" y="0" type="line"/>
    </contour>
  </outline>
</glyph>
<glyph name="y" format="1">
  <advance width="497"/>
  <unicode hex="0079"/>
  <outline>
    <contour>
      <point x="488" y="514" type="line"/>
      <point x="394" y="514" type="line"/>
      <point x="327" y="335" type="line" smooth="yes"/>
      <point x="295" y="250"/>
      <point x="275" y="184"/>
      <point x="250" y="110" type="curve"/>
      <point x="224" y="184"/>
      <point x="198" y="255"/>
      <point x="169" y="335" type="curve" smooth="yes"/>
      <point x="103" y="514" type="line"/>
      <point x="10" y="514" type="line"/>
      <point x="205" y="0" type="line"/>
      <point x="117" y="-236" type="line"/>
      <point x="202" y="-236" type="line"/>
    </contour>
  </outline>
</glyph>
<glyph name="yen" format="1">
  <advance width="602"/>
  <unicode hex="00A5"/>
  <outline>
    <contour>
      <point x="388" y="368" type="line"/>
      <point x="583" y="708" type="line"/>
      <point x="479" y="708" type="line"/>
      <point x="301" y="391" type="line"/>
      <point x="124" y="708" type="line"/>
      <point x="19" y="708" type="line"/>
      <point x="213" y="368" type="line"/>
      <point x="77" y="368" type="line"/>
      <point x="77" y="296" type="line"/>
      <point x="253" y="296" type="line"/>
      <point x="253" y="202" type="line"/>
      <point x="77" y="202" type="line"/>
      <point x="77" y="130" type="line"/>
      <point x="253" y="130" type="line"/>
      <point x="253" y="0" type="line"/>
      <point x="348" y="0" type="line"/>
      <point x="348" y="130" type="line"/>
      <point x="524" y="130" type="line"/>
      <point x="524" y="202" type="line"/>
      <point x="348" y="202" type="line"/>
      <point x="348" y="296" type="line"/>
      <point x="524" y="296" type="line"/>
      <point x="524" y="368" type="line"/>
    </contour>
  </outline>
</glyph>
<glyph name="dieresis" format="1">
  <advance width="374"/>
  <unicode hex="00A8"/>
  <outline>
    <contour>
      <point x="143" y="696" type="line"/>
      <point x="50" y="696" type="line"/>
      <point x="50" y="603" type="line"/>
      <point x="143" y="603" type="line"/>
    </contour>
    <contour>
      <point x="324" y="696" type="line"/>
      <point x="232" y="696" type="line"/>
      <point x="232" y="603" type="line"/>
      <point x="324" y="603" type="line"/>
    </contour>
  </outline>
</glyph>
<glyph name="ordfeminine" format="1">
  <advance width="335"/>
  <unicode hex="00AA"/>
  <outline>
    <contour>
      <point x="17" y="399"/>
      <point x="62" y="359"/>
      <point x="131" y="359" type="curve" smooth="yes"/>
      <point x="170" y="359"/>
      <point x="205" y="372"/>
      <point x="235" y="399" type="curve"/>
      <point x="243" y="367" type="line"/>
      <point x="300" y="367" type="line"/>
      <point x="300" y="583" type="line" smooth="yes"/>
      <point x="300" y="666"/>
      <point x="252" y="713"/>
      <point x="166" y="713" type="curve" smooth="yes"/>
      <point x="126" y="713"/>
      <point x="78" y="702"/>
      <point x="37" y="682" type="curve"/>
      <point x="56" y="626" type="line"/>
      <point x="95" y="643"/>
      <point x="134" y="652"/>
      <point x="161" y="652" type="curve" smooth="yes"/>
      <point x="203" y="652"/>
      <point x="226" y="629"/>
      <point x="228" y="584" type="curve"/>
      <point x="228" y="578" type="line"/>
      <point x="185" y="578" type="line" smooth="yes"/>
      <point x="79" y="578"/>
      <point x="17" y="535"/>
      <point x="17" y="462" type="curve" smooth="yes"/>
    </contour>
    <contour>
      <point x="228" y="460" type="line"/>
      <point x="207" y="435"/>
      <point x="174" y="420"/>
      <point x="143" y="420" type="curve" smooth="yes"/>
      <point x="108" y="420"/>
      <point x="89" y="435"/>
      <point x="89" y="463" type="curve" smooth="yes"/>
      <point x="89" y="503"/>
      <point x="125" y="525"/>
      <point x="189" y="525" type="curve" smooth="yes"/>
      <point x="228" y="525" type="line"/>
    </contour>
  </outline>
</glyph>
<glyph name="uni00AD" format="1">
  <advance width="600"/>
  <unicode hex="00AD"/>
  <outline>
    <contour>
      <point x="422" y="359" type="line"/>
      <point x="75" y="359" type="line"/>
      <point x="75" y="279" type="line"/>
      <point x="422" y="279" type="line"/>
    </contour>
  </outline>
</glyph>
<glyph name="threesuperior" format="1">
  <advance width="333"/>
  <unicode hex="00B3"/>
  <outline>
    <contour>
      <point x="18" y="430" type="line"/>
      <point x="52" y="419"/>
      <point x="93" y="413"/>
      <point x="129" y="413" type="curve" smooth="yes"/>
      <point x="242" y="413"/>
      <point x="306" y="460"/>
      <point x="306" y="539" type="curve" smooth="yes"/>
      <point x="306" y="597"/>
      <point x="271" y="636"/>
      <point x="209" y="649" type="curve"/>
      <point x="266" y="661"/>
      <point x="297" y="695"/>
      <point x="297" y="748" type="curve" smooth="yes"/>
      <point x="297" y="822"/>
      <point x="233" y="864"/>
      <point x="143" y="864" type="curve" smooth="yes"/>
      <point x="99" y="864"/>
      <point x="55" y="855"/>
      <point x="15" y="839" type="curve"/>
      <point x="29" y="776" type="line"/>
      <point x="64" y="789"/>
      <point x="102" y="798"/>
      <point x="131" y="798" type="curve" smooth="yes"/>
      <point x="178" y="798"/>
      <point x="208" y="779"/>
      <point x="208" y="742" type="curve" smooth="yes"/>
      <point x="208" y="699"/>
      <point x="174" y="675"/>
      <point x="113" y="675" type="curve" smooth="yes"/>
      <point x="87" y="675" type="line"/>
      <point x="87" y="613" type="line"/>
      <point x="117" y="613" type="line" smooth="yes"/>
      <point x="184" y="613"/>
      <point x="218" y="590"/>
      <point x="218" y="543" type="curve" smooth="yes"/>
      <point x="218" y="502"/>
      <point x="184" y="479"/>
      <point x="123" y="479" type="curve" smooth="yes"/>
      <point x="96" y="479"/>
      <point x="59" y="484"/>
      <point x="29" y="493" type="curve"/>
    </contour>
  </outline>
</glyph>
<glyph name="paragraph" format="1">
  <advance width="478"/>
  <unicode hex="00B6"/>
  <outline>
    <contour>
      <point x="203" y="-192" type="line"/>
      <point x="268" y="-192" type="line"/>
      <point x="268" y="653" type="line"/>
      <point x="330" y="653" type="line"/>
      <point x="330" y="-192" type="line"/>
      <point x="395" y="-192" type="line"/>
      <point x="395" y="708" type="line"/>
      <point x="203" y="708" type="line" smooth="yes"/>
      <point x="80" y="708"/>
      <point x="8" y="639"/>
      <point x="8" y="523" type="curve" smooth="yes"/>
      <point x="8" y="411"/>
      <point x="86" y="337"/>
      <point x="203" y="337" type="curve"/>
    </contour>
  </outline>
</glyph>
<glyph name="onehalf" format="1">
  <advance width="767"/>
  <unicode hex="00BD"/>
  <outline>
    <contour>
      <point x="526" y="738" type="line"/>
      <point x="99" y="-1" type="line"/>
      <point x="166" y="-38" type="line"/>
      <point x="593" y="701" type="line"/>
    </contour>
    <contour>
      <point x="21" y="600" type="line"/>
      <point x="125" y="629" type="line"/>
      <point x="125" y="260" type="line"/>
      <point x="210" y="260" type="line"/>
      <point x="210" y="700" type="line"/>
      <point x="154" y="709" type="line"/>
      <point x="6" y="648" type="line"/>
    </contour>
    <contour>
      <point x="535" y="447"/>
      <point x="492" y="438"/>
      <point x="451" y="422" type="curve"/>
      <point x="464" y="354" type="line"/>
      <point x="495" y="369"/>
      <point x="531" y="378"/>
      <point x="561" y="378" type="curve" smooth="yes"/>
      <point x="613" y="378"/>
      <point x="644" y="352"/>
      <point x="644" y="305" type="curve" smooth="yes"/>
      <point x="644" y="254"/>
      <point x="627" y="218"/>
      <point x="546" y="145" type="curve" smooth="yes"/>
      <point x="450" y="57" type="line"/>
      <point x="453" y="0" type="line"/>
      <point x="743" y="0" type="line"/>
      <point x="743" y="74" type="line"/>
      <point x="687" y="69"/>
      <point x="624" y="65"/>
      <point x="564" y="63" type="curve"/>
      <point x="622" y="118" type="line" smooth="yes"/>
      <point x="713" y="204"/>
      <point x="733" y="245"/>
      <point x="733" y="308" type="curve" smooth="yes"/>
      <point x="733" y="394"/>
      <point x="672" y="447"/>
      <point x="575" y="447" type="curve" smooth="yes"/>
    </contour>
  </outline>
</glyph>
<glyph name="Edieresis" format="1">
  <advance width="560"/>
  <unicode hex="00CB"/>
  <outline>
    <contour>
      <point x="266" y="890" type="line"/>
      <point x="173" y="890" type="line"/>
      <point x="173" y="797" type="line"/>
      <point x="266" y="797" type="line"/>
    </contour>
    <contour>
      <point x="447" y="890" type="line"/>
      <point x="355" y="890" type="line"/>
      <point x="355" y="797" type="line"/>
      <point x="447" y="797" type="line"/>
    </contour>
    <contour>
      <point x="514" y="708" type="line"/>
      <point x="93" y="708" type="line"/>
      <point x="93" y="0" type="line"/>
      <point x="525" y="0" type="line"/>
      <point x="525" y="85" type="line"/>
      <point x="189" y="85" type="line"/>
      <point x="189" y="328" type="line"/>
      <point x="481" y="328" type="line"/>
      <point x="481" y="413" type="line"/>
      <point x="189" y="413" type="line"/>
      <point x="189" y="623" type="line"/>
      <point x="514" y="623" type="line"/>
    </contour>
  </outline>
</glyph>
<glyph name="Icircumflex" format="1">
  <advance width="282"/>
  <unicode hex="00CE"/>
  <outline>
    <contour>
      <point x="294" y="795" type="line"/>
      <point x="161" y="929" type="line"/>
      <point x="124" y="929" type="line"/>
      <point x="-9" y="795" type="line"/>
      <point x="28" y="761" type="line"/>
      <point x="142" y="849" type="line"/>
      <point x="257" y="761" type="line"/>
    </contour>
    <contour>
      <point x="189" y="708" type="line"/>
      <point x="93" y="708" type="line"/>
      <point x="93" y="0" type="line"/>
      <point x="189" y="0" type="line"/>
    </contour>
  </outline>
</glyph>
<glyph name="Otilde" format="1">
  <advance width="739"/>
  <unicode hex="00D5"/>
  <outline>
    <contour>
      <point x="228" y="912"/>
      <point x="184" y="865"/>
      <point x="184" y="793" type="curve"/>
      <point x="248" y="793" type="line"/>
      <point x="248" y="824"/>
      <point x="267" y="843"/>
      <point x="296" y="843" type="curve" smooth="yes"/>
      <point x="348" y="843"/>
      <point x="360" y="784"/>
      <point x="436" y="784" type="curve" smooth="yes"/>
      <point x="501" y="784"/>
      <point x="544" y="831"/>
      <point x="544" y="903" type="curve"/>
      <point x="480" y="903" type="line"/>
      <point x="480" y="873"/>
      <point x="464" y="854"/>
      <point x="439" y="854" type="curve" smooth="yes"/>
      <point x="383" y="854"/>
      <point x="375" y="912"/>
      <point x="297" y="912" type="curve" smooth="yes"/>
    </contour>
    <contour>
      <point x="165" y="716"/>
      <point x="48" y="586"/>
      <point x="48" y="357" type="curve" smooth="yes"/>
      <point x="48" y="120"/>
      <point x="162" y="-10"/>
      <point x="370" y="-10" type="curve" smooth="yes"/>
      <point x="577" y="-10"/>
      <point x="691" y="121"/>
      <point x="691" y="357" type="curve" smooth="yes"/>
      <point x="691" y="585"/>
      <point x="574" y="716"/>
      <point x="370" y="716" type="curve" smooth="yes"/>
    </contour>
    <contour>
      <point x="512" y="626"/>
      <point x="591" y="530"/>
      <point x="591" y="357" type="curve" smooth="yes"/>
      <point x="591" y="179"/>
      <point x="512" y="80"/>
      <point x="370" y="80" type="curve" smooth="yes"/>
      <point x="227" y="80"/>
      <point x="148" y="178"/>
      <point x="148" y="357" type="curve" smooth="yes"/>
      <point x="148" y="531"/>
      <point x="226" y="626"/>
      <point x="370" y="626" type="curve" smooth="yes"/>
    </contour>
  </outline>
</glyph>
<glyph name="multiply" format="1">
  <advance width="545"/>
  <unicode hex="00D7"/>
  <outline>
    <contour>
      <point x="216" y="297" type="line"/>
      <point x="57" y="138" type="line"/>
      <point x="113" y="82" type="line"/>
      <point x="272" y="241" type="line"/>
      <point x="432" y="82" type="line"/>
      <point x="488" y="138" type="line"/>
      <point x="328" y="297" type="line"/>
      <point x="488" y="457" type="line"/>
      <point x="432" y="513" type="line"/>
      <point x="272" y="353" type="line"/>
      <point x="113" y="513" type="line"/>
      <point x="57" y="457" type="line"/>
    </contour>
  </outline>
</glyph>
<glyph name="igrave" format="1">
  <advance width="258"/>
  <unicode hex="00EC"/>
  <outline>
    <contour>
      <point x="162" y="601" type="line"/>
      <point x="29" y="765" type="line"/>
      <point x="-31" y="703" type="line"/>
      <point x="125" y="567" type="line"/>
    </contour>
    <contour>
      <point x="176" y="514" type="line"/>
      <point x="82" y="514" type="line"/>
      <point x="82" y="0" type="line"/>
      <point x="176" y="0" type="line"/>
    </contour>
  </outline>
</glyph>
<glyph name="icircumflex" format="1">
  <advance width="258"/>
  <unicode hex="00EE"/>
  <outline>
    <contour>
      <point x="282" y="601" type="line"/>
      <point x="149" y="735" type="line"/>
      <point x="112" y="735" type="line"/>
      <point x="-21" y="601" type="line"/>
      <point x="16" y="567" type="line"/>
      <point x="130" y="655" type="line"/>
      <point x="245" y="567" type="line"/>
    </contour>
    <contour>
      <point x="176" y="514" type="line"/>
      <point x="82" y="514" type="line"/>
      <point x="82" y="0" type="line"/>
      <point x="176" y="0" type="line"/>
    </contour>
  </outline>
</glyph>
<glyph name="oslash" format="1">
  <advance width="574"/>
  <unicode hex="00F8"/>
  <outline>
    <contour>
      <point x="511" y="567" type="line"/>
      <point x="418" y="567" type="line"/>
      <point x="384" y="508" type="line"/>
      <point x="355" y="518"/>
      <point x="323" y="523"/>
      <point x="287" y="523" type="curve" smooth="yes"/>
      <point x="132" y="523"/>
      <point x="43" y="426"/>
      <point x="43" y="258" type="curve" smooth="yes"/>
      <point x="43" y="165"/>
      <point x="70" y="94"/>
      <point x="121" y="49" type="curve"/>
      <point x="63" y="-52" type="line"/>
      <point x="156" y="-52" type="line"/>
      <point x="190" y="8" type="line"/>
      <point x="219" y="-3"/>
      <point x="251" y="-8"/>
      <point x="287" y="-8" type="curve" smooth="yes"/>
      <point x="441" y="-8"/>
      <point x="531" y="90"/>
      <point x="531" y="258" type="curve" smooth="yes"/>
      <point x="531" y="351"/>
      <point x="504" y="422"/>
      <point x="454" y="467" type="curve"/>
    </contour>
    <contour>
      <point x="139" y="376"/>
      <point x="191" y="440"/>
      <point x="287" y="440" type="curve" smooth="yes"/>
      <point x="307" y="440"/>
      <point x="325" y="437"/>
      <point x="341" y="432" type="curve"/>
      <point x="169" y="133" type="line"/>
      <point x="149" y="164"/>
      <point x="139" y="206"/>
      <point x="139" y="258" type="curve" smooth="yes"/>
    </contour>
    <contour>
      <point x="268" y="75"/>
      <point x="250" y="78"/>
      <point x="234" y="83" type="curve"/>
      <point x="405" y="382" type="line"/>
      <point x="425" y="352"/>
      <point x="435" y="310"/>
      <point x="435" y="258" type="curve" smooth="yes"/>
      <point x="435" y="140"/>
      <point x="382" y="75"/>
      <point x="287" y="75" type="curve" smooth="yes"/>
    </contour>
  </outline>
</glyph>
<glyph name="ugrave" format="1">
  <advance width="590"/>
  <unicode hex="00F9"/>
  <outline>
    <contour>
      <point x="323" y="601" type="line"/>
      <point x="190" y="765" type="line"/>
      <point x="130" y="703" type="line"/>
      <point x="286" y="567" type="line"/>
    </contour>
    <contour>
      <point x="71" y="175" type="line" smooth="yes"/>
      <point x="71" y="55"/>
      <point x="131" y="-9"/>
      <point x="246" y="-9" type="curve" smooth="yes"/>
      <point x="316" y="-9"/>
      <point x="374" y="17"/>
      <point x="420" y="71" type="curve"/>
      <point x="432" y="0" type="line"/>
      <point x="508" y="0" type="line"/>
      <point x="508" y="514" type="line"/>
      <point x="414" y="514" type="line"/>
      <point x="414" y="150" type="line"/>
      <point x="380" y="103"/>
      <point x="323" y="74"/>
      <point x="264" y="74" type="curve" smooth="yes"/>
      <point x="195" y="74"/>
      <point x="165" y="107"/>
      <point x="165" y="182" type="curve" smooth="yes"/>
      <point x="165" y="514" type="line"/>
      <point x="71" y="514" type="line"/>
    </contour>
  </outline>
</glyph>
<glyph name="ucircumflex" format="1">
  <advance width="590"/>
  <unicode hex="00FB"/>
  <outline>
    <contour>
      <point x="443" y="601" type="line"/>
      <point x="310" y="735" type="line"/>
      <point x="273" y="735" type="line"/>
      <point x="140" y="601" type="line"/>
      <point x="177" y="567" type="line"/>
      <point x="291" y="655" type="line"/>
      <point x="406" y="567" type="line"/>
    </contour>
    <contour>
      <point x="71" y="175" type="line" smooth="yes"/>
      <point x="71" y="55"/>
      <point x="131" y="-9"/>
      <point x="246" y="-9" type="curve" smooth="yes"/>
      <point x="316" y="-9"/>
      <point x="374" y="17"/>
      <point x="420" y="71" type="curve"/>
      <point x="432" y="0" type="line"/>
      <point x="508" y="0" type="line"/>
      <point x="508" y="514" type="line"/>
      <point x="414" y="514" type="line"/>
      <point x="414" y="150" type="line"/>
      <point x="380" y="103"/>
      <point x="323" y="74"/>
      <point x="264" y="74" type="curve" smooth="yes"/>
      <point x="195" y="74"/>
      <point x="165" y="107"/>
      <point x="165" y="182" type="curve" smooth="yes"/>
      <point x="165" y="514" type="line"/>
      <point x="71" y="514" type="line"/>
    </contour>
  </outline>
</glyph>
<glyph name="yacute" format="1">
  <advance width="497"/>
  <unicode hex="00FD"/>
  <outline>
    <contour>
      <point x="253" y="567" type="line"/>
      <point x="409" y="703" type="line"/>
      <point x="349" y="765" type="line"/>
      <point x="216" y="601" type="line"/>
    </contour>
    <contour>
      <point x="488" y="514" type="line"/>
      <point x="394" y="514" type="line"/>
      <point x="327" y="335" type="line" smooth="yes"/>
      <point x="295" y="250"/>
      <point x="275" y="184"/>
      <point x="250" y="110" type="curve"/>
      <point x="224" y="184"/>
      <point x="198" y="255"/>
      <point x="169" y="335" type="curve" smooth="yes"/>
      <point x="103" y="514" type="line"/>
      <point x="10" y="514" type="line"/>
      <point x="205" y="0" type="line"/>
      <point x="117" y="-236" type="line"/>
      <point x="202" y="-236" type="line"/>
    </contour>
  </outline>
</glyph>
<glyph name="Cdotaccent" format="1">
  <advance width="618"/>
  <unicode hex="010A"/>
  <outline>
    <contour>
      <point x="397" y="890" type="line"/>
      <point x="304" y="890" type="line"/>
      <point x="304" y="797" type="line"/>
      <point x="397" y="797" type="line"/>
    </contour>
    <contour>
      <point x="173" y="716"/>
      <point x="48" y="582"/>
      <point x="48" y="356" type="curve" smooth="yes"/>
      <point x="48" y="121"/>
      <point x="164" y="-7"/>
      <point x="377" y="-7" type="curve" smooth="yes"/>
      <point x="449" y="-7"/>
      <point x="532" y="12"/>
      <point x="597" y="43" type="curve"/>
      <point x="562" y="125" type="line"/>
      <point x="503" y="98"/>
      <point x="439" y="83"/>
      <point x="381" y="83" type="curve" smooth="yes"/>
      <point x="232" y="83"/>
      <point x="148" y="181"/>
      <point x="148" y="356" type="curve" smooth="yes"/>
      <point x="148" y="529"/>
      <point x="233" y="626"/>
      <point x="384" y="626" type="curve" smooth="yes"/>
      <point x="439" y="626"/>
      <point x="490" y="612"/>
      <point x="552" y="579" type="curve"/>
      <point x="592" y="657" type="line"/>
      <point x="530" y="695"/>
      <point x="456" y="716"/>
      <point x="384" y="716" type="curve" smooth="yes"/>
    </contour>
  </outline>
</glyph>
<glyph name="cdotaccent" format="1">
  <advance width="470"/>
  <unicode hex="010B"/>
  <outline>
    <contour>
      <point x="323" y="696" type="line"/>
      <point x="230" y="696" type="line"/>
      <point x="230" y="603" type="line"/>
      <point x="323" y="603" type="line"/>
    </contour>
    <contour>
      <point x="134" y="523"/>
      <point x="43" y="425"/>
      <point x="43" y="258" type="curve" smooth="yes"/>
      <point x="43" y="90"/>
      <point x="130" y="-6"/>
      <point x="284" y="-6" type="curve" smooth="yes"/>
      <point x="337" y="-6"/>
      <point x="399" y="9"/>
      <point x="449" y="33" type="curve"/>
      <point x="424" y="108" type="line"/>
      <point x="382" y="89"/>
      <point x="333" y="77"/>
      <point x="295" y="77" type="curve" smooth="yes"/>
      <point x="194" y="77"/>
      <point x="139" y="141"/>
      <point x="139" y="258" type="curve" smooth="yes"/>
      <point x="139" y="374"/>
      <point x="193" y="440"/>
      <point x="289" y="440" type="curve" smooth="yes"/>
      <point x="330" y="440"/>
      <point x="368" y="429"/>
      <point x="411" y="405" type="curve"/>
      <point x="444" y="480" type="line"/>
      <point x="396" y="508"/>
      <point x="341" y="523"/>
      <point x="289" y="523" type="curve" smooth="yes"/>
    </contour>
  </outline>
</glyph>
<glyph name="Ebreve" format="1">
  <advance width="560"/>
  <unicode hex="0114"/>
  <outline>
    <contour>
      <point x="392" y="901" type="line"/>
      <point x="392" y="861"/>
      <point x="359" y="832"/>
      <point x="312" y="832" type="curve" smooth="yes"/>
      <point x="264" y="832"/>
      <point x="233" y="859"/>
      <point x="233" y="901" type="curve"/>
      <point x="169" y="901" type="line"/>
      <point x="169" y="821"/>
      <point x="226" y="767"/>
      <point x="312" y="767" type="curve" smooth="yes"/>
      <point x="398" y="767"/>
      <point x="456" y="821"/>
      <point x="456" y="901" type="curve"/>
    </contour>
    <contour>
      <point x="514" y="708" type="line"/>
      <point x="93" y="708" type="line"/>
      <point x="93" y="0" type="line"/>
      <point x="525" y="0" type="line"/>
      <point x="525" y="85" type="line"/>
      <point x="189" y="85" type="line"/>
      <point x="189" y="328" type="line"/>
      <point x="481" y="328" type="line"/>
      <point x="481" y="413" type="line"/>
      <point x="189" y="413" type="line"/>
      <point x="189" y="623" type="line"/>
      <point x="514" y="623" type="line"/>
    </contour>
  </outline>
</glyph>
<glyph name="Ecaron" format="1">
  <advance width="560"/>
  <unicode hex="011A"/>
  <outline>
    <contour>
      <point x="465" y="905" type="line"/>
      <point x="428" y="939" type="line"/>
      <point x="313" y="851" type="line"/>
      <point x="199" y="939" type="line"/>
      <point x="162" y="905" type="line"/>
      <point x="295" y="771" type="line"/>
      <point x="332" y="771" type="line"/>
    </contour>
    <contour>
      <point x="514" y="708" type="line"/>
      <point x="93" y="708" type="line"/>
      <point x="93" y="0" type="line"/>
      <point x="525" y="0" type="line"/>
      <point x="525" y="85" type="line"/>
      <point x="189" y="85" type="line"/>
      <point x="189" y="328" type="line"/>
      <point x="481" y="328" type="line"/>
      <point x="481" y="413" type="line"/>
      <point x="189" y="413" type="line"/>
      <point x="189" y="623" type="line"/>
      <point x="514" y="623" type="line"/>
    </contour>
  </outline>
</glyph>
<glyph name="Hcircumflex" format="1">
  <advance width="740"/>
  <unicode hex="0124"/>
  <outline>
    <contour>
      <point x="520" y="795" type="line"/>
      <point x="387" y="929" type="line"/>
      <point x="350" y="929" type="line"/>
      <point x="217" y="795" type="line"/>
      <point x="254" y="761" type="line"/>
      <point x="368" y="849" type="line"/>
      <point x="483" y="761" type="line"/>
    </contour>
    <contour>
      <point x="189" y="708" type="line"/>
      <point x="93" y="708" type="line"/>
      <point x="93" y="0" type="line"/>
      <point x="189" y="0" type="line"/>
      <point x="189" y="325" type="line"/>
      <point x="551" y="325" type="line"/>
      <point x="551" y="0" type="line"/>
      <point x="647" y="0" type="line"/>
      <point x="647" y="708" type="line"/>
      <point x="551" y="708" type="line"/>
      <point x="551" y="410" type="line"/>
      <point x="189" y="410" type="line"/>
    </contour>
  </outline>
</glyph>
<glyph name="hcircumflex" format="1">
  <advance width="591"/>
  <unicode hex="0125"/>
  <outline>
    <contour>
      <point x="281" y="801" type="line"/>
      <point x="148" y="935" type="line"/>
      <point x="111" y="935" type="line"/>
      <point x="-22" y="801" type="line"/>
      <point x="15" y="767" type="line"/>
      <point x="129" y="855" type="line"/>
      <point x="244" y="767" type="line"/>
    </contour>
    <contour>
      <point x="177" y="754" type="line"/>
      <point x="83" y="754" type="line"/>
      <point x="83" y="0" type="line"/>
      <point x="177" y="0" type="line"/>
      <point x="177" y="363" type="line"/>
      <point x="209" y="411"/>
      <point x="266" y="440"/>
      <point x="327" y="440" type="curve" smooth="yes"/>
      <point x="396" y="440"/>
      <point x="426" y="407"/>
      <point x="426" y="331" type="curve" smooth="yes"/>
      <point x="426" y="0" type="line"/>
      <point x="520" y="0" type="line"/>
      <point x="520" y="338" type="line" smooth="yes"/>
      <point x="520" y="458"/>
      <point x="461" y="523"/>
      <point x="351" y="523" type="curve" smooth="yes"/>
      <point x="282" y="523"/>
      <point x="224" y="498"/>
      <point x="177" y="448" type="curve"/>
    </contour>
  </outline>
</glyph>
<glyph name="itilde" format="1">
  <advance width="258"/>
  <unicode hex="0129"/>
  <outline>
    <contour>
      <point x="22" y="714"/>
      <point x="-12" y="667"/>
      <point x="-12" y="599" type="curve"/>
      <point x="51" y="599" type="line"/>
      <point x="51" y="632"/>
      <point x="66" y="649"/>
      <point x="85" y="649" type="curve" smooth="yes"/>
      <point x="119" y="649"/>
      <point x="135" y="593"/>
      <point x="190" y="593" type="curve" smooth="yes"/>
      <point x="242" y="593"/>
      <point x="276" y="640"/>
      <point x="276" y="708" type="curve"/>
      <point x="213" y="708" type="line"/>
      <point x="213" y="677"/>
      <point x="201" y="660"/>
      <point x="183" y="660" type="curve" smooth="yes"/>
      <point x="147" y="660"/>
      <point x="135" y="714"/>
      <point x="78" y="714" type="curve" smooth="yes"/>
    </contour>
    <contour>
      <point x="176" y="514" type="line"/>
      <point x="82" y="514" type="line"/>
      <point x="82" y="0" type="line"/>
      <point x="176" y="0" type="line"/>
    </contour>
  </outline>
</glyph>
<glyph name="Iogonek" format="1">
  <advance width="282"/>
  <unicode hex="012E"/>
  <outline>
    <contour>
      <point x="30" y="-183"/>
      <point x="74" y="-225"/>
      <point x="131" y="-225" type="curve" smooth="yes"/>
      <point x="169" y="-225"/>
      <point x="196" y="-215"/>
      <point x="226" y="-199" type="curve"/>
      <point x="212" y="-159" type="line"/>
      <point x="197" y="-165"/>
      <point x="180" y="-169"/>
      <point x="164" y="-169" type="curve" smooth="yes"/>
      <point x="127" y="-169"/>
      <point x="114" y="-142"/>
      <point x="114" y="-113" type="curve" smooth="yes"/>
      <point x="114" y="-63"/>
      <point x="144" y="-31"/>
      <point x="184" y="0" type="curve"/>
      <point x="189" y="0" type="line"/>
      <point x="189" y="708" type="line"/>
      <point x="93" y="708" type="line"/>
      <point x="93" y="0" type="line"/>
      <point x="105" y="0" type="line"/>
      <point x="64" y="-33"/>
      <point x="30" y="-74"/>
      <point x="30" y="-131" type="curve" smooth="yes"/>
    </contour>
  </outline>
</glyph>
<glyph name="IJ" format="1">
  <advance width="609"/>
  <unicode hex="0132"/>
  <outline>
    <contour>
      <point x="531" y="708" type="line"/>
      <point x="297" y="708" type="line"/>
      <point x="297" y="623" type="line"/>
      <point x="435" y="623" type="line"/>
      <point x="435" y="208" type="line" smooth="yes"/>
      <point x="435" y="120"/>
      <point x="395" y="80"/>
      <point x="304" y="80" type="curve" smooth="yes"/>
      <point x="213" y="80"/>
      <point x="174" y="120"/>
      <point x="174" y="208" type="curve" smooth="yes"/>
      <point x="174" y="514" type="line"/>
      <point x="78" y="514" type="line"/>
      <point x="78" y="208" type="line" smooth="yes"/>
      <point x="78" y="69"/>
      <point x="158" y="-9"/>
      <point x="304" y="-9" type="curve" smooth="yes"/>
      <point x="449" y="-9"/>
      <point x="531" y="70"/>
      <point x="531" y="208" type="curve" smooth="yes"/>
    </contour>
    <contour>
      <point x="174" y="614" type="line"/>
      <point x="174" y="708" type="line"/>
      <point x="78" y="708" type="line"/>
      <point x="78" y="614" type="line"/>
    </contour>
  </outline>
</glyph>
<glyph name="jcircumflex" format="1">
  <advance width="260"/>
  <unicode hex="0135"/>
  <outline>
    <contour>
      <point x="283" y="601" type="line"/>
      <point x="150" y="735" type="line"/>
      <point x="113" y="735" type="line"/>
      <point x="-20" y="601" type="line"/>
      <point x="17" y="567" type="line"/>
      <point x="131" y="655" type="line"/>
      <point x="246" y="567" type="line"/>
    </contour>
    <contour>
      <point x="34" y="-182" type="line"/>
      <point x="136" y="-89"/>
      <point x="179" y="-8"/>
      <point x="179" y="88" type="curve" smooth="yes"/>
      <point x="179" y="514" type="line"/>
      <point x="85" y="514" type="line"/>
      <point x="85" y="88" type="line" smooth="yes"/>
      <point x="85" y="20"/>
      <point x="54" y="-46"/>
      <point x="-20" y="-138" type="curve"/>
    </contour>
  </outline>
</glyph>
<glyph name="uni0136" format="1">
  <advance width="641"/>
  <unicode hex="0136"/>
  <outline>
    <contour>
      <point x="189" y="708" type="line"/>
      <point x="93" y="708" type="line"/>
      <point x="93" y="0" type="line"/>
      <point x="189" y="0" type="line"/>
    </contour>
    <contour>
      <point x="492" y="708" type="line"/>
      <point x="210" y="382" type="line"/>
      <point x="512" y="0" type="line"/>
      <point x="634" y="0" type="line"/>
      <point x="329" y="384" type="line"/>
      <point x="609" y="708" type="line"/>
    </contour>
    <contour>
      <point x="294" y="-47" type="line"/>
      <point x="290" y="-107"/>
      <point x="282" y="-152"/>
      <point x="264" y="-215" type="curve"/>
      <point x="324" y="-215" type="line"/>
      <point x="366" y="-139"/>
      <point x="378" y="-105"/>
      <point x="388" y="-47" type="curve"/>
    </contour>
  </outline>
</glyph>
<glyph name="uni013C" format="1">
  <advance width="260"/>
  <unicode hex="013C"/>
  <outline>
    <contour>
      <point x="177" y="750" type="line"/>
      <point x="83" y="750" type="line"/>
      <point x="83" y="0" type="line"/>
      <point x="177" y="0" type="line"/>
    </contour>
    <contour>
      <point x="87" y="-47" type="line"/>
      <point x="83" y="-107"/>
      <point x="75" y="-152"/>
      <point x="57" y="-215" type="curve"/>
      <point x="117" y="-215" type="line"/>
      <point x="159" y="-139"/>
      <point x="171" y="-105"/>
      <point x="181" y="-47" type="curve"/>
    </contour>
  </outline>
</glyph>
<glyph name="Lcaron" format="1">
  <advance width="523"/>
  <unicode hex="013D"/>
  <outline>
    <contour>
      <point x="489" y="698" type="line"/>
      <point x="404" y="710" type="line"/>
      <point x="404" y="518" type="line"/>
      <point x="453" y="514" type="line"/>
    </contour>
    <contour>
      <point x="189" y="708" type="line"/>
      <point x="93" y="708" type="line"/>
      <point x="93" y="0" type="line"/>
      <point x="512" y="0" type="line"/>
      <point x="512" y="85" type="line"/>
      <point x="189" y="85" type="line"/>
    </contour>
  </outline>
</glyph>
<glyph name="uni0146" format="1">
  <advance width="590"/>
  <unicode hex="0146"/>
  <outline>
    <contour>
      <point x="158" y="514" type="line"/>
      <point x="82" y="514" type="line"/>
      <point x="82" y="0" type="line"/>
      <point x="176" y="0" type="line"/>
      <point x="176" y="363" type="line"/>
      <point x="208" y="411"/>
      <point x="265" y="440"/>
      <point x="326" y="440" type="curve" smooth="yes"/>
      <point x="395" y="440"/>
      <point x="425" y="407"/>
      <point x="425" y="331" type="curve" smooth="yes"/>
      <point x="425" y="0" type="line"/>
      <point x="519" y="0" type="line"/>
      <point x="519" y="338" type="line" smooth="yes"/>
      <point x="519" y="458"/>
      <point x="460" y="523"/>
      <point x="350" y="523" type="curve" smooth="yes"/>
      <point x="276" y="523"/>
      <point x="218" y="497"/>
      <point x="169" y="442" type="curve"/>
    </contour>
    <contour>
      <point x="252" y="-47" type="line"/>
      <point x="248" y="-107"/>
      <point x="240" y="-152"/>
      <point x="222" y="-215" type="curve"/>
      <point x="282" y="-215" type="line"/>
      <point x="324" y="-139"/>
      <point x="336" y="-105"/>
      <point x="346" y="-47" type="curve"/>
    </contour>
  </outline>
</glyph>
<glyph name="Ncaron" format="1">
  <advance width="737"/>
  <unicode hex="0147"/>
  <outline>
    <contour>
      <point x="359" y="771" type="line"/>
      <point x="396" y="771" type="line"/>
      <point x="529" y="905" type="line"/>
      <point x="492" y="939" type="line"/>
      <point x="377" y="851" type="line"/>
      <point x="263" y="939" type="line"/>
      <point x="226" y="905" type="line"/>
    </contour>
    <contour>
      <point x="644" y="708" type="line"/>
      <point x="553" y="708" type="line"/>
      <point x="553" y="154" type="line"/>
      <point x="515" y="216"/>
      <point x="478" y="277"/>
      <point x="436" y="336" type="curve" smooth="yes"/>
      <point x="174" y="708" type="line"/>
      <point x="93" y="708" type="line"/>
      <point x="93" y="0" type="line"/>
      <point x="184" y="0" type="line"/>
      <point x="184" y="556" type="line"/>
      <point x="219" y="497"/>
      <point x="255" y="438"/>
      <point x="294" y="382" type="curve" smooth="yes"/>
      <point x="563" y="0" type="line"/>
      <point x="644" y="0" type="line"/>
    </contour>
  </outline>
</glyph>
<glyph name="obreve" format="1">
  <advance width="574"/>
  <unicode hex="014F"/>
  <outline>
    <contour>
      <point x="368" y="707" type="line"/>
      <point x="368" y="667"/>
      <point x="335" y="638"/>
      <point x="288" y="638" type="curve" smooth="yes"/>
      <point x="240" y="638"/>
      <point x="209" y="665"/>
      <point x="209" y="707" type="curve"/>
      <point x="145" y="707" type="line"/>
      <point x="145" y="627"/>
      <point x="202" y="573"/>
      <point x="288" y="573" type="curve" smooth="yes"/>
      <point x="374" y="573"/>
      <point x="432" y="627"/>
      <point x="432" y="707" type="curve"/>
    </contour>
    <contour>
      <point x="132" y="524"/>
      <point x="43" y="426"/>
      <point x="43" y="258" type="curve" smooth="yes"/>
      <point x="43" y="90"/>
      <point x="132" y="-8"/>
      <point x="287" y="-8" type="curve" smooth="yes"/>
      <point x="442" y="-8"/>
      <point x="531" y="90"/>
      <point x="531" y="258" type="curve" smooth="yes"/>
      <point x="531" y="426"/>
      <point x="442" y="524"/>
      <point x="287" y="524" type="curve" smooth="yes"/>
    </contour>
    <contour>
      <point x="383" y="441"/>
      <point x="435" y="376"/>
      <point x="435" y="258" type="curve" smooth="yes"/>
      <point x="435" y="140"/>
      <point x="383" y="75"/>
      <point x="287" y="75" type="curve" smooth="yes"/>
      <point x="191" y="75"/>
      <point x="139" y="140"/>
      <point x="139" y="258" type="curve" smooth="yes"/>
      <point x="139" y="376"/>
      <point x="191" y="441"/>
      <point x="287" y="441" type="curve" smooth="yes"/>
    </contour>
  </outline>
</glyph>
<glyph name="racute" format="1">
  <advance width="381"/>
  <unicode hex="0155"/>
  <outline>
    <contour>
      <point x="317" y="765" type="line"/>
      <point x="184" y="601" type="line"/>
      <point x="221" y="567" type="line"/>
      <point x="377" y="703" type="line"/>
    </contour>
    <contour>
      <point x="157" y="514" type="line"/>
      <point x="82" y="514" type="line"/>
      <point x="82" y="0" type="line"/>
      <point x="176" y="0" type="line"/>
      <point x="176" y="362" type="line"/>
      <point x="203" y="410"/>
      <point x="238" y="430"/>
      <point x="295" y="430" type="curve" smooth="yes"/>
      <point x="311" y="430"/>
      <point x="327" y="427"/>
      <point x="361" y="420" type="curve"/>
      <point x="378" y="512" type="line"/>
      <point x="354" y="519"/>
      <point x="330" y="523"/>
      <point x="311" y="523" type="curve" smooth="yes"/>
      <point x="254" y="523"/>
      <point x="205" y="495"/>
      <point x="169" y="442" type="curve"/>
    </contour>
  </outline>
</glyph>
<glyph name="Scedilla" format="1">
  <advance width="528"/>
  <unicode hex="015E"/>
  <outline>
    <contour>
      <point x="489" y="304"/>
      <point x="438" y="365"/>
      <point x="299" y="405" type="curve" smooth="yes"/>
      <point x="183" y="438"/>
      <point x="150" y="469"/>
      <point x="150" y="531" type="curve" smooth="yes"/>
      <point x="150" y="589"/>
      <point x="203" y="625"/>
      <point x="289" y="625" type="curve" smooth="yes"/>
      <point x="332" y="625"/>
      <point x="383" y="613"/>
      <point x="443" y="590" type="curve"/>
      <point x="467" y="678" type="line"/>
      <point x="405" y="704"/>
      <point x="347" y="716"/>
      <point x="291" y="716" type="curve" smooth="yes"/>
      <point x="140" y="716"/>
      <point x="50" y="642"/>
      <point x="50" y="517" type="curve" smooth="yes"/>
      <point x="50" y="415"/>
      <point x="100" y="358"/>
      <point x="229" y="323" type="curve" smooth="yes"/>
      <point x="354" y="289"/>
      <point x="389" y="258"/>
      <point x="389" y="194" type="curve" smooth="yes"/>
      <point x="389" y="125"/>
      <point x="336" y="82"/>
      <point x="249" y="82" type="curve" smooth="yes"/>
      <point x="194" y="82"/>
      <point x="151" y="93"/>
      <point x="64" y="128" type="curve"/>
      <point x="35" y="41" type="line"/>
      <point x="113" y="8"/>
      <point x="184" y="-9"/>
      <point x="249" y="-9" type="curve" smooth="yes"/>
      <point x="256" y="-9" type="line"/>
      <point x="224" y="-54" type="line"/>
      <point x="230" y="-75" type="line"/>
      <point x="270" y="-87"/>
      <point x="287" y="-102"/>
      <point x="287" y="-126" type="curve" smooth="yes"/>
      <point x="287" y="-149"/>
      <point x="273" y="-162"/>
      <point x="249" y="-162" type="curve" smooth="yes"/>
      <point x="232" y="-162"/>
      <point x="215" y="-157"/>
      <point x="203" y="-150" type="curve"/>
      <point x="185" y="-188" type="line"/>
      <point x="207" y="-201"/>
      <point x="238" y="-213"/>
      <point x="270" y="-213" type="curve" smooth="yes"/>
      <point x="316" y="-213"/>
      <point x="355" y="-184"/>
      <point x="355" y="-128" type="curve" smooth="yes"/>
      <point x="355" y="-94"/>
      <point x="326" y="-58"/>
      <point x="289" y="-45" type="curve"/>
      <point x="302" y="-5" type="line"/>
      <point x="420" y="11"/>
      <point x="489" y="84"/>
      <point x="489" y="195" type="curve" smooth="yes"/>
    </contour>
  </outline>
</glyph>
<glyph name="utilde" format="1">
  <advance width="590"/>
  <unicode hex="0169"/>
  <outline>
    <contour>
      <point x="152" y="718"/>
      <point x="108" y="671"/>
      <point x="108" y="599" type="curve"/>
      <point x="172" y="599" type="line"/>
      <point x="172" y="630"/>
      <point x="191" y="649"/>
      <point x="220" y="649" type="curve" smooth="yes"/>
      <point x="272" y="649"/>
      <point x="284" y="590"/>
      <point x="360" y="590" type="curve" smooth="yes"/>
      <point x="425" y="590"/>
      <point x="468" y="637"/>
      <point x="468" y="709" type="curve"/>
      <point x="404" y="709" type="line"/>
      <point x="404" y="679"/>
      <point x="388" y="660"/>
      <point x="363" y="660" type="curve" smooth="yes"/>
      <point x="307" y="660"/>
      <point x="299" y="718"/>
      <point x="221" y="718" type="curve" smooth="yes"/>
    </contour>
    <contour>
      <point x="71" y="175" type="line" smooth="yes"/>
      <point x="71" y="55"/>
      <point x="131" y="-9"/>
      <point x="246" y="-9" type="curve" smooth="yes"/>
      <point x="316" y="-9"/>
      <point x="374" y="17"/>
      <point x="420" y="71" type="curve"/>
      <point x="432" y="0" type="line"/>
      <point x="508" y="0" type="line"/>
      <point x="508" y="514" type="line"/>
      <point x="414" y="514" type="line"/>
      <point x="414" y="150" type="line"/>
      <point x="380" y="103"/>
      <point x="323" y="74"/>
      <point x="264" y="74" type="curve" smooth="yes"/>
      <point x="195" y="74"/>
      <point x="165" y="107"/>
      <point x="165" y="182" type="curve" smooth="yes"/>
      <point x="165" y="514" type="line"/>
      <point x="71" y="514" type="line"/>
    </contour>
  </outline>
</glyph>
<glyph name="uring" format="1">
  <advance width="590"/>
  <unicode hex="016F"/>
  <outline>
    <contour>
      <point x="219" y="826"/>
      <point x="158" y="767"/>
      <point x="158" y="697" type="curve" smooth="yes"/>
      <point x="158" y="627"/>
      <point x="219" y="568"/>
      <point x="292" y="568" type="curve" smooth="yes"/>
      <point x="365" y="568"/>
      <point x="426" y="627"/>
      <point x="426" y="697" type="curve" smooth="yes"/>
      <point x="426" y="767"/>
      <point x="365" y="826"/>
      <point x="292" y="826" type="curve" smooth="yes"/>
    </contour>
    <contour>
      <point x="327" y="760"/>
      <point x="355" y="732"/>
      <point x="355" y="697" type="curve" smooth="yes"/>
      <point x="355" y="662"/>
      <point x="327" y="633"/>
      <point x="292" y="633" type="curve" smooth="yes"/>
      <point x="257" y="633"/>
      <point x="228" y="662"/>
      <point x="228" y="697" type="curve" smooth="yes"/>
      <point x="228" y="732"/>
      <point x="257" y="760"/>
      <point x="292" y="760" type="curve" smooth="yes"/>
    </contour>
    <contour>
      <point x="71" y="175" type="line" smooth="yes"/>
      <point x="71" y="55"/>
      <point x="131" y="-9"/>
      <point x="246" y="-9" type="curve" smooth="yes"/>
      <point x="316" y="-9"/>
      <point x="374" y="17"/>
      <point x="420" y="71" type="curve"/>
      <point x="432" y="0" type="line"/>
      <point x="508" y="0" type="line"/>
      <point x="508" y="514" type="line"/>
      <point x="414" y="514" type="line"/>
      <point x="414" y="150" type="line"/>
      <point x="380" y="103"/>
      <point x="323" y="74"/>
      <point x="264" y="74" type="curve" smooth="yes"/>
      <point x="195" y="74"/>
      <point x="165" y="107"/>
      <point x="165" y="182" type="curve" smooth="yes"/>
      <point x="165" y="514" type="line"/>
      <point x="71" y="514" type="line"/>
    </contour>
  </outline>
</glyph>
<glyph name="wcircumflex" format="1">
  <advance width="795"/>
  <unicode hex="0175"/>
  <outline>
    <contour>
      <point x="544" y="601" type="line"/>
      <point x="411" y="735" type="line"/>
      <point x="374" y="735" type="line"/>
      <point x="241" y="601" type="line"/>
      <point x="278" y="567" type="line"/>
      <point x="392" y="655" type="line"/>
      <point x="507" y="567" type="line"/>
    </contour>
    <contour>
      <point x="632" y="0" type="line"/>
      <point x="777" y="514" type="line"/>
      <point x="684" y="514" type="line"/>
      <point x="614" y="259" type="line" smooth="yes"/>
      <point x="598" y="203"/>
      <point x="583" y="147"/>
      <point x="567" y="91" type="curve"/>
      <point x="550" y="147"/>
      <point x="533" y="203"/>
      <point x="517" y="259" type="curve" smooth="yes"/>
      <point x="442" y="514" type="line"/>
      <point x="353" y="514" type="line"/>
      <point x="278" y="259" type="line" smooth="yes"/>
      <point x="262" y="203"/>
      <point x="245" y="147"/>
      <point x="228" y="91" type="curve"/>
      <point x="212" y="147"/>
      <point x="197" y="203"/>
      <point x="181" y="259" type="curve" smooth="yes"/>
      <point x="111" y="514" type="line"/>
      <point x="18" y="514" type="line"/>
      <point x="163" y="0" type="line"/>
      <point x="293" y="0" type="line"/>
      <point x="362" y="243" type="line" smooth="yes"/>
      <point x="377" y="295"/>
      <point x="386" y="347"/>
      <point x="398" y="388" type="curve"/>
      <point x="409" y="347"/>
      <point x="418" y="295"/>
      <point x="433" y="243" type="curve" smooth="yes"/>
      <point x="502" y="0" type="line"/>
    </contour>
  </outline>
</glyph>
<glyph name="caron" format="1">
  <advance width="403"/>
  <unicode hex="02C7"/>
  <outline>
    <contour>
      <point x="353" y="711" type="line"/>
      <point x="316" y="745" type="line"/>
      <point x="201" y="657" type="line"/>
      <point x="87" y="745" type="line"/>
      <point x="50" y="711" type="line"/>
      <point x="183" y="577" type="line"/>
      <point x="220" y="577" type="line"/>
    </contour>
  </outline>
</glyph>
<glyph name="breve" format="1">
  <advance width="387"/>
  <unicode hex="02D8"/>
  <outline>
    <contour>
      <point x="273" y="707" type="line"/>
      <point x="273" y="667"/>
      <point x="240" y="638"/>
      <point x="193" y="638" type="curve" smooth="yes"/>
      <point x="145" y="638"/>
      <point x="114" y="665"/>
      <point x="114" y="707" type="curve"/>
      <point x="50" y="707" type="line"/>
      <point x="50" y="627"/>
      <point x="107" y="573"/>
      <point x="193" y="573" type="curve" smooth="yes"/>
      <point x="279" y="573"/>
      <point x="337" y="627"/>
      <point x="337" y="707" type="curve"/>
    </contour>
  </outline>
</glyph>
<glyph name="ogonek" format="1">
  <advance width="293"/>
  <unicode hex="02DB"/>
  <outline>
    <contour>
      <point x="149" y="0" type="line"/>
      <point x="96" y="-21"/>
      <point x="50" y="-77"/>
      <point x="50" y="-132" type="curve" smooth="yes"/>
      <point x="50" y="-198"/>
      <point x="99" y="-225"/>
      <point x="146" y="-225" type="curve" smooth="yes"/>
      <point x="184" y="-225"/>
      <point x="211" y="-215"/>
      <point x="241" y="-199" type="curve"/>
      <point x="227" y="-159" type="line"/>
      <point x="212" y="-165"/>
      <point x="195" y="-169"/>
      <point x="179" y="-169" type="curve" smooth="yes"/>
      <point x="155" y="-169"/>
      <point x="133" y="-154"/>
      <point x="133" y="-121" type="curve" smooth="yes"/>
      <point x="133" y="-67"/>
      <point x="180" y="-35"/>
      <point x="243" y="0" type="curve"/>
    </contour>
  </outline>
</glyph>
<glyph name="hungarumlaut" format="1">
  <advance width="464"/>
  <unicode hex="02DD"/>
  <outline>
    <contour>
      <point x="184" y="765" type="line"/>
      <point x="50" y="601" type="line"/>
      <point x="87" y="567" type="line"/>
      <point x="244" y="703" type="line"/>
    </contour>
    <contour>
      <point x="354" y="765" type="line"/>
      <point x="220" y="601" type="line"/>
      <point x="257" y="567" type="line"/>
      <point x="414" y="703" type="line"/>
    </contour>
  </outline>
</glyph>
<glyph name="Delta" format="1">
  <advance width="678"/>
  <unicode hex="0394"/>
  <outline>
    <contour>
      <point x="397" y="708" type="line"/>
      <point x="272" y="708" type="line"/>
      <point x="13" y="0" type="line"/>
      <point x="666" y="0" type="line"/>
    </contour>
    <contour>
      <point x="337" y="609" type="line"/>
      <point x="537" y="80" type="line"/>
      <point x="144" y="80" type="line"/>
    </contour>
  </outline>
</glyph>
<glyph name="mu" format="1">
  <advance width="602"/>
  <unicode hex="03BC"/>
  <outline>
    <contour>
      <point x="520" y="514" type="line"/>
      <point x="426" y="514" type="line"/>
      <point x="426" y="150" type="line"/>
      <point x="392" y="103"/>
      <point x="335" y="74"/>
      <point x="276" y="74" type="curve" smooth="yes"/>
      <point x="207" y="74"/>
      <point x="177" y="107"/>
      <point x="177" y="182" type="curve" smooth="yes"/>
      <point x="177" y="514" type="line"/>
      <point x="83" y="514" type="line"/>
      <point x="83" y="-208" type="line"/>
      <point x="177" y="-208" type="line"/>
      <point x="160" y="13" type="line"/>
      <point x="186" y="-2"/>
      <point x="219" y="-9"/>
      <point x="258" y="-9" type="curve" smooth="yes"/>
      <point x="328" y="-9"/>
      <point x="386" y="17"/>
      <point x="432" y="71" type="curve"/>
      <point x="444" y="0" type="line"/>
      <point x="520" y="0" type="line"/>
    </contour>
  </outline>
</glyph>
<glyph name="aShort-deva" format="1">
  <advance width="788"/>
  <unicode hex="0904"/>
  <outline>
    <component base="a-deva"/>
    <component base="eShortMatra-deva" xOffset="243"/>
    <contour>
      <point x="635" y="658" type="move" name="top"/>
    </contour>
    <contour>
      <point x="635" y="0" type="move" name="bottom"/>
    </contour>
  </outline>
</glyph>
<glyph name="u-deva" format="1">
  <advance width="495"/>
  <unicode hex="0909"/>
  <outline>
    <contour>
      <point x="257" y="344" type="line"/>
      <point x="316" y="312"/>
      <point x="352" y="270"/>
      <point x="352" y="213" type="curve" smooth="yes"/>
      <point x="352" y="155"/>
      <point x="315" y="106"/>
      <point x="237" y="106" type="curve"/>
      <point x="178" y="106"/>
      <point x="112" y="148"/>
      <point x="76" y="216" type="curve"/>
      <point x="15" y="182" type="line"/>
      <point x="64" y="85"/>
      <point x="148" y="32"/>
      <point x="237" y="32" type="curve"/>
      <point x="349" y="32"/>
      <point x="436" y="101"/>
      <point x="436" y="213" type="curve" smooth="yes"/>
      <point x="436" y="299"/>
      <point x="383" y="369"/>
      <point x="295" y="410" type="curve"/>
    </contour>
    <contour>
      <point x="258" y="596" type="line"/>
      <point x="297" y="570"/>
      <point x="317" y="538"/>
      <point x="317" y="501" type="curve"/>
      <point x="317" y="439"/>
      <point x="272" y="405"/>
      <point x="147" y="378" type="curve"/>
      <point x="165" y="309" type="line"/>
      <point x="326" y="344"/>
      <point x="401" y="406"/>
      <point x="401" y="501" type="curve"/>
      <point x="401" y="558"/>
      <point x="371" y="606"/>
      <point x="310" y="642" type="curve"/>
    </contour>
    <contour>
      <point x="-30" y="658" type="line"/>
      <point x="-30" y="583" type="line"/>
      <point x="525" y="583" type="line"/>
      <point x="525" y="658" type="line"/>
    </contour>
    <contour>
      <point x="301" y="658" type="move" name="top"/>
    </contour>
    <contour>
      <point x="262" y="0" type="move" name="bottom"/>
    </contour>
  </outline>
</glyph>
<glyph name="ai-deva" format="1">
  <advance width="541"/>
  <unicode hex="0910"/>
  <outline>
    <component base="e-deva"/>
    <component base="eMatra-deva" xOffset="140"/>
    <contour>
      <point x="418" y="658" type="move" name="top"/>
    </contour>
    <contour>
      <point x="271" y="0" type="move" name="bottom"/>
    </contour>
  </outline>
</glyph>
<glyph name="oCandra-deva" format="1">
  <advance width="1065"/>
  <unicode hex="0911"/>
  <outline>
    <component base="aa-deva"/>
    <component base="eCandraMatra-deva" xOffset="702"/>
    <contour>
      <point x="918" y="851" type="move" name="top"/>
    </contour>
    <contour>
      <point x="922" y="0" type="move" name="bottom"/>
    </contour>
  </outline>
</glyph>
<glyph name="o-deva" format="1">
  <advance width="1065"/>
  <unicode hex="0913"/>
  <outline>
    <component base="aa-deva"/>
    <component base="eMatra-deva" xOffset="636"/>
    <contour>
      <point x="950" y="755" type="move" name="top"/>
    </contour>
    <contour>
      <point x="919" y="0" type="move" name="bottom"/>
    </contour>
  </outline>
</glyph>
<glyph name="au-deva" format="1">
  <advance width="1065"/>
  <unicode hex="0914"/>
  <outline>
    <component base="aa-deva"/>
    <component base="aiMatra-deva" xOffset="542"/>
    <contour>
      <point x="925" y="658" type="move" name="top"/>
    </contour>
    <contour>
      <point x="918" y="0" type="move" name="bottom"/>
    </contour>
  </outline>
</glyph>
<glyph name="nnna-deva" format="1">
  <advance width="595"/>
  <unicode hex="0929"/>
  <outline>
    <component base="nnn-deva"/>
    <component base="aaMatra-deva" xOffset="289"/>
    <contour>
      <point x="453" y="657" type="move" name="top"/>
    </contour>
    <contour>
      <point x="451" y="0" type="move" name="bottom"/>
    </contour>
  </outline>
</glyph>
<glyph name="va-deva" format="1">
  <advance width="580"/>
  <unicode hex="0935"/>
  <outline>
    <component base="v-deva"/>
    <component base="aaMatra-deva" xOffset="274"/>
    <contour>
      <point x="428" y="658" type="move" name="top"/>
    </contour>
    <contour>
      <point x="427" y="0" type="move" name="bottom"/>
    </contour>
  </outline>
</glyph>
<glyph name="sha-deva" format="1">
  <advance width="787"/>
  <unicode hex="0936"/>
  <outline>
    <component base="sh-deva"/>
    <component base="aaMatra-deva" xOffset="481"/>
    <contour>
      <point x="633" y="658" type="move" name="top"/>
    </contour>
    <contour>
      <point x="633" y="0" type="move" name="bottom"/>
    </contour>
  </outline>
</glyph>
<glyph name="oeMatra-deva" format="1">
  <advance width="125"/>
  <unicode hex="093A"/>
  <outline>
    <contour>
      <point x="20" y="828" type="line"/>
      <point x="20" y="648" type="line"/>
      <point x="105" y="648" type="line"/>
      <point x="105" y="802" type="line"/>
    </contour>
    <contour>
      <point x="63" y="659" type="move" name="_top"/>
    </contour>
  </outline>
</glyph>
<glyph name="uuMatra-deva" format="1">
  <advance width="354"/>
  <unicode hex="0942"/>
  <outline>
    <component base="uMatra-deva" xOffset="354" yOffset="-191" xScale="-1" yScale="-1"/>
    <contour>
      <point x="171" y="0" type="move" name="_bottom"/>
    </contour>
  </outline>
</glyph>
<glyph name="auMatra-deva" format="1">
  <advance width="306"/>
  <unicode hex="094C"/>
  <outline>
    <component base="aaMatra-deva"/>
    <component base="aiMatra-deva" xOffset="-217"/>
    <contour>
      <point x="143" y="908" type="move" name="top"/>
    </contour>
  </outline>
</glyph>
<glyph name="rha-deva" format="1">
  <advance width="568"/>
  <unicode hex="095D"/>
  <outline>
    <component base="ddha-deva"/>
    <component base="nukta-deva" xOffset="239"/>
    <contour>
      <point x="403" y="658" type="move" name="top"/>
    </contour>
    <contour>
      <point x="284" y="0" type="move" name="bottom"/>
    </contour>
  </outline>
</glyph>
<glyph name="fa-deva" format="1">
  <advance width="822"/>
  <unicode hex="095E"/>
  <outline>
    <component base="pha-deva"/>
    <component base="nukta-deva" xOffset="145" yOffset="176"/>
    <contour>
      <point x="411" y="658" type="move" name="top"/>
    </contour>
    <contour>
      <point x="411" y="0" type="move" name="bottom"/>
    </contour>
  </outline>
</glyph>
<glyph name="dbldanda-deva" format="1">
  <advance width="495"/>
  <unicode hex="0965"/>
  <outline>
    <contour>
      <point x="110" y="688" type="line"/>
      <point x="110" y="-48" type="line"/>
      <point x="195" y="-48" type="line"/>
      <point x="195" y="688" type="line"/>
    </contour>
    <contour>
      <point x="300" y="688" type="line"/>
      <point x="300" y="-48" type="line"/>
      <point x="385" y="-48" type="line"/>
      <point x="385" y="688" type="line"/>
    </contour>
  </outline>
</glyph>
<glyph name="two-deva" format="1">
  <advance width="530"/>
  <unicode hex="0968"/>
  <outline>
    <contour>
      <point x="368" y="378"/>
      <point x="287" y="315"/>
      <point x="186" y="315" type="curve"/>
      <point x="274" y="255" type="line"/>
      <point x="219" y="354"/>
      <point x="193" y="391"/>
      <point x="139" y="391" type="curve" smooth="yes"/>
      <point x="86" y="391"/>
      <point x="62" y="367"/>
      <point x="62" y="326" type="curve" smooth="yes"/>
      <point x="62" y="267"/>
      <point x="110" y="241"/>
      <point x="217" y="241" type="curve" smooth="yes"/>
      <point x="348" y="241"/>
      <point x="452" y="337"/>
      <point x="452" y="458" type="curve" smooth="yes"/>
      <point x="452" y="586"/>
      <point x="364" y="666"/>
      <point x="224" y="666" type="curve" smooth="yes"/>
      <point x="164" y="666"/>
      <point x="102" y="652"/>
      <point x="44" y="628" type="curve"/>
      <point x="66" y="555" type="line"/>
      <point x="118" y="575"/>
      <point x="173" y="589"/>
      <point x="220" y="589" type="curve" smooth="yes"/>
      <point x="315" y="589"/>
      <point x="368" y="542"/>
      <point x="368" y="458" type="curve" smooth="yes"/>
    </contour>
    <contour>
      <point x="171" y="274" type="line"/>
      <point x="359" y="-39" type="line"/>
      <point x="430" y="0" type="line"/>
      <point x="255" y="288" type="line"/>
    </contour>
  </outline>
</glyph>
<glyph name="quoteleft" format="1">
  <advance width="256"/>
  <unicode hex="2018"/>
  <outline>
    <contour>
      <point x="123" y="728" type="line"/>
      <point x="56" y="570" type="line"/>
      <point x="56" y="484" type="line"/>
      <point x="185" y="484" type="line"/>
      <point x="185" y="591" type="line"/>
      <point x="137" y="591" type="line"/>
      <point x="189" y="728" type="line"/>
    </contour>
  </outline>
</glyph>
<glyph name="quotesinglbase" format="1">
  <advance width="234"/>
  <unicode hex="201A"/>
  <outline>
    <contour>
      <point x="157" y="124" type="line"/>
      <point x="77" y="124" type="line"/>
      <point x="82" y="-120" type="line"/>
      <point x="152" y="-120" type="line"/>
    </contour>
  </outline>
</glyph>
<glyph name="dagger" format="1">
  <advance width="466"/>
  <unicode hex="2020"/>
  <outline>
    <contour>
      <point x="-5" y="442" type="line"/>
      <point x="191" y="442" type="line"/>
      <point x="191" y="-193" type="line"/>
      <point x="275" y="-193" type="line"/>
      <point x="275" y="442" type="line"/>
      <point x="471" y="442" type="line"/>
      <point x="471" y="514" type="line"/>
      <point x="275" y="514" type="line"/>
      <point x="275" y="774" type="line"/>
      <point x="191" y="774" type="line"/>
      <point x="191" y="514" type="line"/>
      <point x="-5" y="514" type="line"/>
    </contour>
  </outline>
</glyph>
<glyph name="daggerdbl" format="1">
  <advance width="494"/>
  <unicode hex="2021"/>
  <outline>
    <contour>
      <point x="9" y="39" type="line"/>
      <point x="205" y="39" type="line"/>
      <point x="205" y="-193" type="line"/>
      <point x="289" y="-193" type="line"/>
      <point x="289" y="39" type="line"/>
      <point x="485" y="39" type="line"/>
      <point x="485" y="111" type="line"/>
      <point x="289" y="111" type="line"/>
      <point x="289" y="442" type="line"/>
      <point x="485" y="442" type="line"/>
      <point x="485" y="514" type="line"/>
      <point x="289" y="514" type="line"/>
      <point x="289" y="774" type="line"/>
      <point x="205" y="774" type="line"/>
      <point x="205" y="514" type="line"/>
      <point x="9" y="514" type="line"/>
      <point x="9" y="442" type="line"/>
      <point x="205" y="442" type="line"/>
      <point x="205" y="111" type="line"/>
      <point x="9" y="111" type="line"/>
    </contour>
  </outline>
</glyph>
<glyph name="minute" format="1">
  <advance width="238"/>
  <unicode hex="2032"/>
  <outline>
    <contour>
      <point x="202" y="708" type="line"/>
      <point x="108" y="708" type="line"/>
      <point x="53" y="480" type="line"/>
      <point x="113" y="480" type="line"/>
    </contour>
  </outline>
</glyph>
<glyph name="second" format="1">
  <advance width="392"/>
  <unicode hex="2033"/>
  <outline>
    <contour>
      <point x="202" y="708" type="line"/>
      <point x="108" y="708" type="line"/>
      <point x="53" y="480" type="line"/>
      <point x="113" y="480" type="line"/>
    </contour>
    <contour>
      <point x="356" y="708" type="line"/>
      <point x="262" y="708" type="line"/>
      <point x="207" y="480" type="line"/>
      <point x="267" y="480" type="line"/>
    </contour>
  </outline>
</glyph>
<glyph name="fraction" format="1">
  <advance width="174"/>
  <unicode hex="2044"/>
  <outline>
    <contour>
      <point x="267" y="738" type="line"/>
      <point x="-160" y="-1" type="line"/>
      <point x="-93" y="-38" type="line"/>
      <point x="334" y="701" type="line"/>
    </contour>
  </outline>
</glyph>
<glyph name="threeeighths" format="1">
  <advance width="893"/>
  <unicode hex="215C"/>
  <outline>
    <contour>
      <point x="600" y="738" type="line"/>
      <point x="173" y="-1" type="line"/>
      <point x="240" y="-38" type="line"/>
      <point x="667" y="701" type="line"/>
    </contour>
    <contour>
      <point x="18" y="270" type="line"/>
      <point x="52" y="259"/>
      <point x="93" y="253"/>
      <point x="129" y="253" type="curve" smooth="yes"/>
      <point x="242" y="253"/>
      <point x="306" y="300"/>
      <point x="306" y="379" type="curve" smooth="yes"/>
      <point x="306" y="437"/>
      <point x="271" y="476"/>
      <point x="209" y="489" type="curve"/>
      <point x="266" y="501"/>
      <point x="297" y="535"/>
      <point x="297" y="588" type="curve" smooth="yes"/>
      <point x="297" y="662"/>
      <point x="233" y="704"/>
      <point x="143" y="704" type="curve" smooth="yes"/>
      <point x="99" y="704"/>
      <point x="55" y="695"/>
      <point x="15" y="679" type="curve"/>
      <point x="29" y="616" type="line"/>
      <point x="64" y="629"/>
      <point x="102" y="638"/>
      <point x="131" y="638" type="curve" smooth="yes"/>
      <point x="178" y="638"/>
      <point x="208" y="619"/>
      <point x="208" y="582" type="curve" smooth="yes"/>
      <point x="208" y="539"/>
      <point x="174" y="515"/>
      <point x="113" y="515" type="curve" smooth="yes"/>
      <point x="87" y="515" type="line"/>
      <point x="87" y="453" type="line"/>
      <point x="117" y="453" type="line" smooth="yes"/>
      <point x="184" y="453"/>
      <point x="218" y="430"/>
      <point x="218" y="383" type="curve" smooth="yes"/>
      <point x="218" y="342"/>
      <point x="184" y="319"/>
      <point x="123" y="319" type="curve" smooth="yes"/>
      <point x="96" y="319"/>
      <point x="59" y="324"/>
      <point x="29" y="333" type="curve"/>
    </contour>
    <contour>
      <point x="532" y="38"/>
      <point x="597" y="-10"/>
      <point x="702" y="-10" type="curve" smooth="yes"/>
      <point x="802" y="-10"/>
      <point x="869" y="41"/>
      <point x="869" y="118" type="curve" smooth="yes"/>
      <point x="869" y="181"/>
      <point x="827" y="210"/>
      <point x="778" y="231" type="curve"/>
      <point x="825" y="255"/>
      <point x="851" y="290"/>
      <point x="851" y="331" type="curve" smooth="yes"/>
      <point x="851" y="403"/>
      <point x="792" y="449"/>
      <point x="700" y="449" type="curve" smooth="yes"/>
      <point x="607" y="449"/>
      <point x="549" y="403"/>
      <point x="549" y="332" type="curve" smooth="yes"/>
      <point x="549" y="277"/>
      <point x="576" y="248"/>
      <point x="612" y="229" type="curve"/>
      <point x="560" y="203"/>
      <point x="532" y="165"/>
      <point x="532" y="117" type="curve" smooth="yes"/>
    </contour>
    <contour>
      <point x="772" y="297"/>
      <point x="754" y="271"/>
      <point x="722" y="251" type="curve"/>
      <point x="672" y="268"/>
      <point x="628" y="285"/>
      <point x="628" y="328" type="curve" smooth="yes"/>
      <point x="628" y="363"/>
      <point x="656" y="385"/>
      <point x="700" y="385" type="curve" smooth="yes"/>
      <point x="744" y="385"/>
      <point x="772" y="363"/>
      <point x="772" y="328" type="curve" smooth="yes"/>
    </contour>
    <contour>
      <point x="788" y="81"/>
      <point x="752" y="54"/>
      <point x="702" y="54" type="curve" smooth="yes"/>
      <point x="648" y="54"/>
      <point x="612" y="80"/>
      <point x="612" y="120" type="curve" smooth="yes"/>
      <point x="612" y="153"/>
      <point x="628" y="177"/>
      <point x="670" y="205" type="curve"/>
      <point x="729" y="186"/>
      <point x="788" y="173"/>
      <point x="788" y="121" type="curve" smooth="yes"/>
    </contour>
  </outline>
</glyph>
<glyph name="seveneighths" format="1">
  <advance width="890"/>
  <unicode hex="215E"/>
  <outline>
    <contour>
      <point x="597" y="738" type="line"/>
      <point x="170" y="-1" type="line"/>
      <point x="237" y="-38" type="line"/>
      <point x="664" y="701" type="line"/>
    </contour>
    <contour>
      <point x="8" y="638" type="line"/>
      <point x="229" y="638" type="line"/>
      <point x="52" y="260" type="line"/>
      <point x="138" y="260" type="line"/>
      <point x="318" y="649" type="line"/>
      <point x="305" y="705" type="line"/>
      <point x="8" y="705" type="line"/>
    </contour>
    <contour>
      <point x="529" y="38"/>
      <point x="594" y="-10"/>
      <point x="699" y="-10" type="curve" smooth="yes"/>
      <point x="799" y="-10"/>
      <point x="866" y="41"/>
      <point x="866" y="118" type="curve" smooth="yes"/>
      <point x="866" y="181"/>
      <point x="824" y="210"/>
      <point x="775" y="231" type="curve"/>
      <point x="822" y="255"/>
      <point x="848" y="290"/>
      <point x="848" y="331" type="curve" smooth="yes"/>
      <point x="848" y="403"/>
      <point x="789" y="449"/>
      <point x="697" y="449" type="curve" smooth="yes"/>
      <point x="604" y="449"/>
      <point x="546" y="403"/>
      <point x="546" y="332" type="curve" smooth="yes"/>
      <point x="546" y="277"/>
      <point x="573" y="248"/>
      <point x="609" y="229" type="curve"/>
      <point x="557" y="203"/>
      <point x="529" y="165"/>
      <point x="529" y="117" type="curve" smooth="yes"/>
    </contour>
    <contour>
      <point x="769" y="297"/>
      <point x="751" y="271"/>
      <point x="719" y="251" type="curve"/>
      <point x="669" y="268"/>
      <point x="625" y="285"/>
      <point x="625" y="328" type="curve" smooth="yes"/>
      <point x="625" y="363"/>
      <point x="653" y="385"/>
      <point x="697" y="385" type="curve" smooth="yes"/>
      <point x="741" y="385"/>
      <point x="769" y="363"/>
      <point x="769" y="328" type="curve" smooth="yes"/>
    </contour>
    <contour>
      <point x="785" y="81"/>
      <point x="749" y="54"/>
      <point x="699" y="54" type="curve" smooth="yes"/>
      <point x="645" y="54"/>
      <point x="609" y="80"/>
      <point x="609" y="120" type="curve" smooth="yes"/>
      <point x="609" y="153"/>
      <point x="625" y="177"/>
      <point x="667" y="205" type="curve"/>
      <point x="726" y="186"/>
      <point x="785" y="173"/>
      <point x="785" y="121" type="curve" smooth="yes"/>
    </contour>
  </outline>
</glyph>
<glyph name="partialdiff" format="1">
  <advance width="596"/>
  <unicode hex="2202"/>
  <outline>
    <contour>
      <point x="68" y="89"/>
      <point x="152" y="-10"/>
      <point x="288" y="-10" type="curve" smooth="yes"/>
      <point x="441" y="-10"/>
      <point x="522" y="104"/>
      <point x="522" y="318" type="curve" smooth="yes"/>
      <point x="522" y="560"/>
      <point x="417" y="715"/>
      <point x="254" y="715" type="curve" smooth="yes"/>
      <point x="186" y="715"/>
      <point x="125" y="678"/>
      <point x="83" y="611" type="curve"/>
      <point x="117" y="579" type="line"/>
      <point x="161" y="615"/>
      <point x="202" y="630"/>
      <point x="256" y="630" type="curve" smooth="yes"/>
      <point x="337" y="630"/>
      <point x="393" y="560"/>
      <point x="414" y="434" type="curve"/>
      <point x="379" y="473"/>
      <point x="331" y="494"/>
      <point x="278" y="494" type="curve" smooth="yes"/>
      <point x="151" y="494"/>
      <point x="68" y="397"/>
      <point x="68" y="248" type="curve" smooth="yes"/>
    </contour>
    <contour>
      <point x="422" y="309" type="line" smooth="yes"/>
      <point x="422" y="143"/>
      <point x="381" y="70"/>
      <point x="289" y="70" type="curve" smooth="yes"/>
      <point x="217" y="70"/>
      <point x="168" y="141"/>
      <point x="168" y="247" type="curve" smooth="yes"/>
      <point x="168" y="351"/>
      <point x="216" y="414"/>
      <point x="294" y="414" type="curve" smooth="yes"/>
      <point x="350" y="414"/>
      <point x="403" y="379"/>
      <point x="422" y="329" type="curve"/>
    </contour>
  </outline>
</glyph>
<glyph name="minus" format="1">
  <advance width="623"/>
  <unicode hex="2212"/>
  <outline>
    <contour>
      <point x="515" y="343" type="line"/>
      <point x="108" y="343" type="line"/>
      <point x="108" y="271" type="line"/>
      <point x="515" y="271" type="line"/>
    </contour>
  </outline>
</glyph>
<glyph name="infinity" format="1">
  <advance width="941"/>
  <unicode hex="221E"/>
  <outline>
    <contour>
      <point x="76" y="210"/>
      <point x="147" y="142"/>
      <point x="253" y="142" type="curve" smooth="yes"/>
      <point x="311" y="142"/>
      <point x="397" y="190"/>
      <point x="467" y="262" type="curve"/>
      <point x="535" y="192"/>
      <point x="623" y="142"/>
      <point x="679" y="142" type="curve" smooth="yes"/>
      <point x="787" y="142"/>
      <point x="865" y="214"/>
      <point x="865" y="312" type="curve" smooth="yes"/>
      <point x="865" y="414"/>
      <point x="797" y="482"/>
      <point x="697" y="482" type="curve" smooth="yes"/>
      <point x="627" y="482"/>
      <point x="539" y="434"/>
      <point x="472" y="361" type="curve"/>
      <point x="408" y="435"/>
      <point x="321" y="482"/>
      <point x="252" y="482" type="curve" smooth="yes"/>
      <point x="150" y="482"/>
      <point x="76" y="410"/>
      <point x="76" y="312" type="curve" smooth="yes"/>
    </contour>
    <contour>
      <point x="364" y="251"/>
      <point x="303" y="214"/>
      <point x="259" y="214" type="curve" smooth="yes"/>
      <point x="196" y="214"/>
      <point x="155" y="253"/>
      <point x="155" y="312" type="curve" smooth="yes"/>
      <point x="155" y="370"/>
      <point x="194" y="410"/>
      <point x="252" y="410" type="curve" smooth="yes"/>
      <point x="299" y="410"/>
      <point x="365" y="371"/>
      <point x="420" y="312" type="curve"/>
    </contour>
    <contour>
      <point x="785" y="251"/>
      <point x="744" y="214"/>
      <point x="679" y="214" type="curve" smooth="yes"/>
      <point x="640" y="214"/>
      <point x="579" y="252"/>
      <point x="522" y="312" type="curve"/>
      <point x="584" y="374"/>
      <point x="646" y="410"/>
      <point x="690" y="410" type="curve" smooth="yes"/>
      <point x="746" y="410"/>
      <point x="785" y="370"/>
      <point x="785" y="312" type="curve" smooth="yes"/>
    </contour>
  </outline>
</glyph>
<glyph name="notequal" format="1">
  <advance width="591"/>
  <unicode hex="2260"/>
  <outline>
    <contour>
      <point x="163" y="149" type="line"/>
      <point x="114" y="63" type="line"/>
      <point x="175" y="26" type="line"/>
      <point x="246" y="149" type="line"/>
      <point x="526" y="149" type="line"/>
      <point x="526" y="221" type="line"/>
      <point x="287" y="221" type="line"/>
      <point x="369" y="363" type="line"/>
      <point x="526" y="363" type="line"/>
      <point x="526" y="435" type="line"/>
      <point x="411" y="435" type="line"/>
      <point x="457" y="514" type="line"/>
      <point x="396" y="551" type="line"/>
      <point x="328" y="435" type="line"/>
      <point x="68" y="435" type="line"/>
      <point x="68" y="363" type="line"/>
      <point x="287" y="363" type="line"/>
      <point x="205" y="221" type="line"/>
      <point x="68" y="221" type="line"/>
      <point x="68" y="149" type="line"/>
    </contour>
  </outline>
</glyph>
<glyph name="lessequal" format="1">
  <advance width="624"/>
  <unicode hex="2264"/>
  <outline>
    <contour>
      <point x="54" y="438" type="line"/>
      <point x="54" y="383" type="line"/>
      <point x="548" y="167" type="line"/>
      <point x="548" y="253" type="line"/>
      <point x="188" y="410" type="line"/>
      <point x="548" y="568" type="line"/>
      <point x="548" y="654" type="line"/>
    </contour>
    <contour>
      <point x="550" y="124" type="line"/>
      <point x="53" y="124" type="line"/>
      <point x="53" y="52" type="line"/>
      <point x="550" y="52" type="line"/>
    </contour>
  </outline>
</glyph>
<glyph name="avagraha-deva.comb" format="1">
  <advance width="229"/>
  <unicode hex="A8F1"/>
  <outline>
    <contour>
      <point x="143" y="961" type="line" smooth="yes"/>
      <point x="84" y="961"/>
      <point x="48" y="933"/>
      <point x="48" y="887" type="curve" smooth="yes"/>
      <point x="48" y="845"/>
      <point x="68" y="819"/>
      <point x="118" y="799" type="curve" smooth="yes"/>
      <point x="149" y="786"/>
      <point x="162" y="772"/>
      <point x="162" y="750" type="curve" smooth="yes"/>
      <point x="162" y="730"/>
      <point x="146" y="716"/>
      <point x="121" y="716" type="curve" smooth="yes"/>
      <point x="94" y="716"/>
      <point x="68" y="730"/>
      <point x="50" y="757" type="curve"/>
      <point x="9" y="728" type="line"/>
      <point x="37" y="687"/>
      <point x="77" y="665"/>
      <point x="124" y="665" type="curve" smooth="yes"/>
      <point x="184" y="665"/>
      <point x="220" y="696"/>
      <point x="220" y="750" type="curve" smooth="yes"/>
      <point x="220" y="792"/>
      <point x="202" y="819"/>
      <point x="156" y="840" type="curve" smooth="yes"/>
      <point x="123" y="854"/>
      <point x="109" y="867"/>
      <point x="109" y="887" type="curve" smooth="yes"/>
      <point x="109" y="903"/>
      <point x="122" y="913"/>
      <point x="143" y="913" type="curve" smooth="yes"/>
      <point x="212" y="913" type="line"/>
      <point x="212" y="961" type="line"/>
    </contour>
    <contour>
      <point x="114" y="657" type="move" name="_top"/>
    </contour>
  </outline>
</glyph>
<glyph name="headstroke-deva" format="1">
  <advance width="319"/>
  <unicode hex="A8FB"/>
  <outline>
    <contour>
      <point x="-10" y="658" type="line"/>
      <point x="-10" y="583" type="line"/>
      <point x="329" y="583" type="line"/>
      <point x="329" y="658" type="line"/>
    </contour>
  </outline>
</glyph>
<glyph name="bh-deva" format="1">
  <advance width="423"/>
  <outline>
    <contour>
      <point x="91" y="659"/>
      <point x="31" y="608"/>
      <point x="31" y="535" type="curve" smooth="yes"/>
      <point x="31" y="482"/>
      <point x="61" y="439"/>
      <point x="111" y="415" type="curve"/>
      <point x="150" y="477" type="line"/>
      <point x="126" y="489"/>
      <point x="112" y="509"/>
      <point x="112" y="533" type="curve" smooth="yes"/>
      <point x="112" y="566"/>
      <point x="136" y="583"/>
      <point x="167" y="583" type="curve" smooth="yes"/>
      <point x="207" y="583"/>
      <point x="227" y="556"/>
      <point x="227" y="516" type="curve" smooth="yes"/>
      <point x="227" y="342" type="line"/>
      <point x="316" y="342" type="line"/>
      <point x="316" y="524" type="line" smooth="yes"/>
      <point x="316" y="605"/>
      <point x="260" y="659"/>
      <point x="166" y="659" type="curve" smooth="yes"/>
    </contour>
    <contour>
      <point x="182" y="362"/>
      <point x="164" y="348"/>
      <point x="164" y="312" type="curve" smooth="yes"/>
      <point x="164" y="262"/>
      <point x="224" y="201"/>
      <point x="274" y="201" type="curve"/>
      <point x="308" y="201"/>
      <point x="314" y="215"/>
      <point x="319" y="308" type="curve"/>
      <point x="232" y="308" type="line"/>
      <point x="249" y="261" type="line"/>
      <point x="308" y="283" type="line"/>
      <point x="553" y="283" type="line"/>
      <point x="543" y="357" type="line"/>
      <point x="247" y="357" type="line"/>
      <point x="228" y="362" type="line"/>
    </contour>
    <contour>
      <point x="276" y="658" type="move" name="top"/>
    </contour>
    <contour>
      <point x="276" y="0" type="move" name="bottom"/>
    </contour>
  </outline>
</glyph>
<glyph name="c_ra-deva" format="1">
  <advance width="655"/>
  <outline>
    <contour>
      <point x="146" y="23" type="line"/>
      <point x="196" y="-35" type="line"/>
      <point x="477" y="184" type="line"/>
      <point x="477" y="276" type="line"/>
    </contour>
    <component base="ca-deva"/>
    <contour>
      <point x="511" y="658" type="move" name="top"/>
    </contour>
    <contour>
      <point x="511" y="0" type="move" name="bottom"/>
    </contour>
  </outline>
</glyph>
<glyph name="caron.alt" format="1">
  <advance width="249"/>
  <outline>
    <contour>
      <point x="167" y="751" type="line"/>
      <point x="82" y="763" type="line"/>
      <point x="82" y="571" type="line"/>
      <point x="131" y="567" type="line"/>
    </contour>
  </outline>
</glyph>
<glyph name="d-deva" format="1">
  <advance width="520"/>
  <outline>
    <component base="da-deva"/>
    <component base="halant-deva" xOffset="197"/>
    <contour>
      <point x="379" y="658" type="move" name="top"/>
    </contour>
    <contour>
      <point x="274" y="0" type="move" name="bottom"/>
    </contour>
  </outline>
</glyph>
<glyph name="d_b_ra-deva" format="1">
  <advance width="595"/>
  <outline>
    <contour>
      <point x="344" y="159" type="line"/>
      <point x="227" y="-89" type="line"/>
      <point x="299" y="-117" type="line"/>
      <point x="408" y="123" type="line"/>
    </contour>
    <component base="d_ba-deva"/>
    <contour>
      <point x="414" y="658" type="move" name="top"/>
    </contour>
    <contour>
      <point x="505" y="48" type="move" name="bottom"/>
    </contour>
  </outline>
</glyph>
<glyph name="d_ba-deva" format="1">
  <advance width="576"/>
  <outline>
    <contour>
      <point x="263" y="19" type="line"/>
      <point x="303" y="58" type="line"/>
      <point x="172" y="201" type="line"/>
      <point x="130" y="162" type="line"/>
    </contour>
    <component base="d_va-deva" xOffset="-7"/>
    <contour>
      <point x="389" y="658" type="move" name="top"/>
    </contour>
    <contour>
      <point x="488" y="48" type="move" name="bottom"/>
    </contour>
  </outline>
</glyph>
<glyph name="d_ba_uMatra-deva" format="1">
  <advance width="576"/>
  <outline>
    <component base="d_ba-deva"/>
    <component base="uMatra-deva" xOffset="280" yOffset="48"/>
    <contour>
      <point x="434" y="658" type="move" name="top"/>
    </contour>
    <contour>
      <point x="338" y="78" type="move" name="bottom"/>
    </contour>
  </outline>
</glyph>
<glyph name="d_bha_uMatra-deva" format="1">
  <advance width="681"/>
  <outline>
    <contour>
      <point x="434" y="-123" type="line"/>
      <point x="470" y="-150"/>
      <point x="512" y="-162"/>
      <point x="564" y="-162" type="curve" smooth="yes"/>
      <point x="655" y="-163"/>
      <point x="709" y="-115"/>
      <point x="709" y="-40" type="curve" smooth="yes"/>
      <point x="709" y="24"/>
      <point x="656" y="71"/>
      <point x="583" y="71" type="curve" smooth="yes"/>
      <point x="544" y="71"/>
      <point x="504" y="59"/>
      <point x="479" y="40" type="curve"/>
      <point x="531" y="-20" type="line"/>
      <point x="548" y="-6"/>
      <point x="570" y="2"/>
      <point x="591" y="2" type="curve" smooth="yes"/>
      <point x="620" y="2"/>
      <point x="632" y="-10"/>
      <point x="632" y="-34" type="curve" smooth="yes"/>
      <point x="632" y="-67"/>
      <point x="600" y="-95"/>
      <point x="555" y="-94" type="curve" smooth="yes"/>
      <point x="521" y="-95"/>
      <point x="492" y="-86"/>
      <point x="467" y="-68" type="curve"/>
    </contour>
    <component base="d_bha-deva"/>
    <contour>
      <point x="480" y="658" type="move" name="top"/>
    </contour>
    <contour>
      <point x="391" y="78" type="move" name="bottom"/>
    </contour>
  </outline>
</glyph>
<glyph name="d_ddh_r_ya-deva" format="1">
  <advance width="1141"/>
  <outline>
    <component base="d_dha-deva"/>
    <component base="ya.connect" xOffset="598"/>
    <contour>
      <point x="989" y="658" type="move" name="top"/>
    </contour>
    <contour>
      <point x="988" y="0" type="move" name="bottom"/>
    </contour>
  </outline>
</glyph>
<glyph name="d_na-deva" format="1">
  <advance width="547"/>
  <outline>
    <contour>
      <point x="282" y="209" type="line"/>
      <point x="121" y="72" type="line" smooth="yes"/>
      <point x="98" y="53"/>
      <point x="88" y="41"/>
      <point x="88" y="25" type="curve" smooth="yes"/>
      <point x="88" y="-6"/>
      <point x="139" y="-42"/>
      <point x="210" y="-42" type="curve" smooth="yes"/>
      <point x="262" y="-42"/>
      <point x="280" y="-27"/>
      <point x="280" y="-14" type="curve" smooth="yes"/>
      <point x="280" y="6"/>
      <point x="261" y="37"/>
      <point x="205" y="78" type="curve"/>
      <point x="149" y="30" type="line"/>
      <point x="201" y="-32" type="line"/>
      <point x="222" y="60" type="line"/>
      <point x="377" y="192" type="line"/>
    </contour>
    <contour>
      <point x="-5" y="658" type="line"/>
      <point x="-5" y="583" type="line"/>
      <point x="565" y="583" type="line"/>
      <point x="565" y="658" type="line"/>
    </contour>
    <component base="da_small" xOffset="-6"/>
    <contour>
      <point x="391" y="658" type="move" name="top"/>
    </contour>
    <contour>
      <point x="479" y="47" type="move" name="bottom"/>
    </contour>
  </outline>
</glyph>
<glyph name="d_na_uMatra-deva" format="1">
  <advance width="547"/>
  <outline>
    <component base="d_na-deva"/>
    <component base="uMatra-deva" xOffset="271" yOffset="47"/>
    <contour>
      <point x="389" y="658" type="move" name="top"/>
    </contour>
    <contour>
      <point x="294" y="78" type="move" name="bottom"/>
    </contour>
  </outline>
</glyph>
<glyph name="d_rVocalicMatra-deva" format="1">
  <advance width="560"/>
  <outline>
    <contour>
      <point x="-30" y="658" type="line"/>
      <point x="-30" y="583" type="line"/>
      <point x="336" y="583" type="line"/>
      <point x="336" y="522" type="line"/>
      <point x="249" y="522" type="line" smooth="yes"/>
      <point x="129" y="522"/>
      <point x="52" y="479"/>
      <point x="52" y="366" type="curve" smooth="yes"/>
      <point x="52" y="238"/>
      <point x="158" y="159"/>
      <point x="286" y="159" type="curve" smooth="yes"/>
      <point x="307" y="159"/>
      <point x="328" y="160"/>
      <point x="347" y="163" type="curve"/>
      <point x="424" y="49" type="line"/>
      <point x="367" y="31"/>
      <point x="319" y="-9"/>
      <point x="319" y="-76" type="curve" smooth="yes"/>
      <point x="319" y="-139"/>
      <point x="357" y="-203"/>
      <point x="451" y="-203" type="curve" smooth="yes"/>
      <point x="495" y="-203"/>
      <point x="554" y="-185"/>
      <point x="597" y="-149" type="curve"/>
      <point x="563" y="-86" type="line"/>
      <point x="525" y="-110"/>
      <point x="490" y="-127"/>
      <point x="459" y="-127" type="curve" smooth="yes"/>
      <point x="421" y="-127"/>
      <point x="403" y="-108"/>
      <point x="403" y="-75" type="curve" smooth="yes"/>
      <point x="403" y="-19"/>
      <point x="479" y="-9"/>
      <point x="531" y="-9" type="curve"/>
      <point x="515" y="63" type="line"/>
      <point x="426" y="184" type="line"/>
      <point x="452" y="197"/>
      <point x="469" y="216"/>
      <point x="469" y="240" type="curve" smooth="yes"/>
      <point x="469" y="284"/>
      <point x="419" y="330"/>
      <point x="359" y="330" type="curve" smooth="yes"/>
      <point x="318" y="330"/>
      <point x="303" y="303"/>
      <point x="303" y="278" type="curve" smooth="yes"/>
      <point x="303" y="263"/>
      <point x="305" y="247"/>
      <point x="308" y="234" type="curve"/>
      <point x="286" y="233" type="line" smooth="yes"/>
      <point x="204" y="233"/>
      <point x="135" y="283"/>
      <point x="135" y="365" type="curve" smooth="yes"/>
      <point x="135" y="424"/>
      <point x="173" y="448"/>
      <point x="238" y="448" type="curve" smooth="yes"/>
      <point x="420" y="448" type="line"/>
      <point x="420" y="583" type="line"/>
      <point x="590" y="583" type="line"/>
      <point x="590" y="658" type="line"/>
    </contour>
    <contour>
      <point x="376" y="658" type="move" name="top"/>
    </contour>
    <contour>
      <point x="433" y="-154" type="move" name="bottom"/>
    </contour>
  </outline>
</glyph>
<glyph name="d_ra-deva" format="1">
  <advance width="564"/>
  <outline>
    <contour>
      <point x="-5" y="583" type="line"/>
      <point x="569" y="583" type="line"/>
      <point x="569" y="658" type="line"/>
      <point x="-5" y="658" type="line"/>
    </contour>
    <contour>
      <point x="352" y="119"/>
      <point x="406" y="53"/>
      <point x="482" y="-5" type="curve"/>
      <point x="537" y="52" type="line"/>
      <point x="459" y="113"/>
      <point x="420" y="152"/>
      <point x="389" y="250" type="curve"/>
      <point x="321" y="208" type="line"/>
    </contour>
    <contour>
      <point x="39" y="23" type="line"/>
      <point x="89" y="-35" type="line"/>
      <point x="370" y="184" type="line"/>
      <point x="269" y="199" type="line"/>
    </contour>
    <component base="da-deva-compo" xOffset="8"/>
    <contour>
      <point x="390" y="658" type="move" name="top"/>
    </contour>
    <contour>
      <point x="277" y="0" type="move" name="bottom"/>
    </contour>
  </outline>
</glyph>
<glyph name="d_va_uMatra-deva" format="1">
  <advance width="571"/>
  <outline>
    <component base="d_va-deva"/>
    <component base="uMatra-deva" xOffset="297" yOffset="48"/>
    <contour>
      <point x="403" y="658" type="move" name="top"/>
    </contour>
    <contour>
      <point x="497" y="0" type="move" name="bottom"/>
    </contour>
  </outline>
</glyph>
<glyph name="da-deva-compo" format="1">
  <advance width="559"/>
  <outline>
    <contour>
      <point x="332" y="522" type="line"/>
      <point x="245" y="522" type="line" smooth="yes"/>
      <point x="125" y="522"/>
      <point x="48" y="479"/>
      <point x="48" y="366" type="curve" smooth="yes"/>
      <point x="48" y="238"/>
      <point x="154" y="159"/>
      <point x="282" y="159" type="curve" smooth="yes"/>
      <point x="373" y="159"/>
      <point x="465" y="183"/>
      <point x="465" y="240" type="curve" smooth="yes"/>
      <point x="465" y="284"/>
      <point x="415" y="330"/>
      <point x="355" y="330" type="curve" smooth="yes"/>
      <point x="314" y="330"/>
      <point x="299" y="303"/>
      <point x="299" y="278" type="curve" smooth="yes"/>
      <point x="299" y="253"/>
      <point x="305" y="225"/>
      <point x="313" y="208" type="curve"/>
      <point x="402" y="262" type="line"/>
      <point x="364" y="241"/>
      <point x="338" y="233"/>
      <point x="282" y="233" type="curve" smooth="yes"/>
      <point x="200" y="233"/>
      <point x="131" y="283"/>
      <point x="131" y="365" type="curve" smooth="yes"/>
      <point x="131" y="424"/>
      <point x="169" y="448"/>
      <point x="234" y="448" type="curve" smooth="yes"/>
      <point x="416" y="448" type="line"/>
      <point x="416" y="633" type="line"/>
      <point x="332" y="633" type="line"/>
    </contour>
    <contour>
      <point x="381" y="658" type="move" name="top"/>
    </contour>
    <contour>
      <point x="284" y="78" type="move" name="bottom"/>
    </contour>
  </outline>
</glyph>
<glyph name="dd_dd_ya-deva" format="1">
  <advance width="1128"/>
  <outline>
    <contour>
      <point x="-20" y="658" type="line"/>
      <point x="-20" y="583" type="line"/>
      <point x="950" y="583" type="line"/>
      <point x="950" y="658" type="line"/>
    </contour>
    <contour>
      <point x="999" y="242" type="line"/>
      <point x="954" y="187"/>
      <point x="893" y="156"/>
      <point x="834" y="156" type="curve" smooth="yes"/>
      <point x="768" y="156"/>
      <point x="715" y="187"/>
      <point x="699" y="261" type="curve"/>
      <point x="766" y="293"/>
      <point x="819" y="345"/>
      <point x="819" y="423" type="curve" smooth="yes"/>
      <point x="819" y="483"/>
      <point x="779" y="522"/>
      <point x="719" y="522" type="curve" smooth="yes"/>
      <point x="386" y="522" type="line"/>
      <point x="386" y="448" type="line"/>
      <point x="703" y="448" type="line" smooth="yes"/>
      <point x="725" y="448"/>
      <point x="736" y="436"/>
      <point x="736" y="414" type="curve" smooth="yes"/>
      <point x="736" y="357"/>
      <point x="680" y="327"/>
      <point x="605" y="303" type="curve"/>
      <point x="622" y="153"/>
      <point x="703" y="82"/>
      <point x="834" y="82" type="curve" smooth="yes"/>
      <point x="893" y="82"/>
      <point x="950" y="100"/>
      <point x="999" y="136" type="curve"/>
    </contour>
    <contour>
      <point x="222" y="124" type="line" smooth="yes"/>
      <point x="161" y="124"/>
      <point x="121" y="90"/>
      <point x="121" y="36" type="curve" smooth="yes"/>
      <point x="121" y="-32"/>
      <point x="175" y="-94"/>
      <point x="247" y="-94" type="curve" smooth="yes"/>
      <point x="287" y="-94"/>
      <point x="378" y="-73"/>
      <point x="408" y="-73" type="curve" smooth="yes"/>
      <point x="433" y="-73"/>
      <point x="441" y="-83"/>
      <point x="441" y="-103" type="curve" smooth="yes"/>
      <point x="441" y="-135"/>
      <point x="398" y="-161"/>
      <point x="300" y="-161" type="curve" smooth="yes"/>
      <point x="217" y="-161"/>
      <point x="150" y="-128"/>
      <point x="84" y="-48" type="curve"/>
      <point x="25" y="-82" type="line"/>
      <point x="88" y="-182"/>
      <point x="190" y="-235"/>
      <point x="306" y="-235" type="curve" smooth="yes"/>
      <point x="430" y="-235"/>
      <point x="525" y="-182"/>
      <point x="525" y="-92" type="curve" smooth="yes"/>
      <point x="525" y="-32"/>
      <point x="499" y="2"/>
      <point x="439" y="2" type="curve" smooth="yes"/>
      <point x="399" y="2"/>
      <point x="293" y="-19"/>
      <point x="263" y="-19" type="curve" smooth="yes"/>
      <point x="222" y="-19"/>
      <point x="205" y="-4"/>
      <point x="205" y="24" type="curve" smooth="yes"/>
      <point x="205" y="41"/>
      <point x="218" y="50"/>
      <point x="235" y="50" type="curve" smooth="yes"/>
      <point x="465" y="50" type="line"/>
      <point x="388" y="124" type="line"/>
    </contour>
    <contour>
      <point x="381" y="226" type="line"/>
      <point x="381" y="89" type="line"/>
      <point x="465" y="50" type="line"/>
      <point x="465" y="226" type="line"/>
    </contour>
    <contour>
      <point x="222" y="522" type="line" smooth="yes"/>
      <point x="161" y="522"/>
      <point x="121" y="488"/>
      <point x="121" y="434" type="curve" smooth="yes"/>
      <point x="121" y="366"/>
      <point x="175" y="304"/>
      <point x="247" y="304" type="curve" smooth="yes"/>
      <point x="287" y="304"/>
      <point x="378" y="325"/>
      <point x="408" y="325" type="curve" smooth="yes"/>
      <point x="433" y="325"/>
      <point x="441" y="315"/>
      <point x="441" y="295" type="curve" smooth="yes"/>
      <point x="441" y="263"/>
      <point x="398" y="237"/>
      <point x="300" y="237" type="curve" smooth="yes"/>
      <point x="217" y="237"/>
      <point x="150" y="270"/>
      <point x="84" y="350" type="curve"/>
      <point x="25" y="316" type="line"/>
      <point x="88" y="216"/>
      <point x="190" y="163"/>
      <point x="306" y="163" type="curve" smooth="yes"/>
      <point x="430" y="163"/>
      <point x="525" y="216"/>
      <point x="525" y="306" type="curve" smooth="yes"/>
      <point x="525" y="366"/>
      <point x="499" y="400"/>
      <point x="439" y="400" type="curve" smooth="yes"/>
      <point x="399" y="400"/>
      <point x="293" y="379"/>
      <point x="263" y="379" type="curve" smooth="yes"/>
      <point x="222" y="379"/>
      <point x="205" y="394"/>
      <point x="205" y="422" type="curve" smooth="yes"/>
      <point x="205" y="439"/>
      <point x="218" y="448"/>
      <point x="235" y="448" type="curve" smooth="yes"/>
      <point x="465" y="448" type="line"/>
      <point x="388" y="522" type="line"/>
    </contour>
    <contour>
      <point x="381" y="624" type="line"/>
      <point x="381" y="487" type="line"/>
      <point x="465" y="448" type="line"/>
      <point x="465" y="624" type="line"/>
    </contour>
    <contour>
      <point x="932" y="606" type="line"/>
      <point x="932" y="0" type="line"/>
      <point x="1017" y="0" type="line"/>
      <point x="1017" y="606" type="line"/>
    </contour>
    <contour>
      <point x="804" y="658" type="line"/>
      <point x="804" y="583" type="line"/>
      <point x="1146" y="583" type="line"/>
      <point x="1146" y="658" type="line"/>
    </contour>
    <contour>
      <point x="1015" y="658" type="move" name="imatra"/>
    </contour>
    <contour>
      <point x="975" y="-235" type="move" name="bottom"/>
    </contour>
    <contour>
      <point x="975" y="658" type="move" name="top"/>
    </contour>
  </outline>
</glyph>
<glyph name="ddh_ddh_ya-deva" format="1">
  <advance width="1142"/>
  <outline>
    <contour>
      <point x="-20" y="658" type="line"/>
      <point x="-20" y="583" type="line"/>
      <point x="978" y="583" type="line"/>
      <point x="978" y="658" type="line"/>
    </contour>
    <contour>
      <point x="1011" y="242" type="line"/>
      <point x="966" y="187"/>
      <point x="905" y="156"/>
      <point x="846" y="156" type="curve" smooth="yes"/>
      <point x="780" y="156"/>
      <point x="727" y="187"/>
      <point x="711" y="261" type="curve"/>
      <point x="778" y="293"/>
      <point x="831" y="345"/>
      <point x="831" y="423" type="curve" smooth="yes"/>
      <point x="831" y="483"/>
      <point x="791" y="522"/>
      <point x="731" y="522" type="curve" smooth="yes"/>
      <point x="398" y="522" type="line"/>
      <point x="398" y="448" type="line"/>
      <point x="715" y="448" type="line" smooth="yes"/>
      <point x="737" y="448"/>
      <point x="748" y="436"/>
      <point x="748" y="414" type="curve" smooth="yes"/>
      <point x="748" y="357"/>
      <point x="692" y="327"/>
      <point x="617" y="303" type="curve"/>
      <point x="634" y="153"/>
      <point x="715" y="82"/>
      <point x="846" y="82" type="curve" smooth="yes"/>
      <point x="905" y="82"/>
      <point x="962" y="100"/>
      <point x="1011" y="136" type="curve"/>
    </contour>
    <contour>
      <point x="361" y="522" type="line"/>
      <point x="259" y="522" type="line" smooth="yes"/>
      <point x="143" y="522"/>
      <point x="59" y="481"/>
      <point x="59" y="370" type="curve" smooth="yes"/>
      <point x="59" y="220"/>
      <point x="213" y="184"/>
      <point x="327" y="184" type="curve" smooth="yes"/>
      <point x="455" y="184"/>
      <point x="538" y="230"/>
      <point x="538" y="303" type="curve" smooth="yes"/>
      <point x="538" y="341"/>
      <point x="507" y="396"/>
      <point x="420" y="396" type="curve" smooth="yes"/>
      <point x="334" y="396"/>
      <point x="294" y="356"/>
      <point x="294" y="306" type="curve" smooth="yes"/>
      <point x="294" y="276"/>
      <point x="309" y="242"/>
      <point x="337" y="211" type="curve"/>
      <point x="415" y="224" type="line"/>
      <point x="391" y="241"/>
      <point x="376" y="269"/>
      <point x="376" y="292" type="curve" smooth="yes"/>
      <point x="376" y="314"/>
      <point x="389" y="331"/>
      <point x="419" y="331" type="curve" smooth="yes"/>
      <point x="443" y="331"/>
      <point x="454" y="319"/>
      <point x="454" y="305" type="curve" smooth="yes"/>
      <point x="454" y="270"/>
      <point x="413" y="258"/>
      <point x="309" y="258" type="curve" smooth="yes"/>
      <point x="184" y="258"/>
      <point x="143" y="314"/>
      <point x="143" y="368" type="curve" smooth="yes"/>
      <point x="143" y="424"/>
      <point x="183" y="448"/>
      <point x="264" y="448" type="curve" smooth="yes"/>
      <point x="445" y="448" type="line"/>
      <point x="445" y="634" type="line"/>
      <point x="361" y="634" type="line"/>
    </contour>
    <contour>
      <point x="361" y="116" type="line"/>
      <point x="259" y="116" type="line" smooth="yes"/>
      <point x="143" y="116"/>
      <point x="59" y="75"/>
      <point x="59" y="-36" type="curve" smooth="yes"/>
      <point x="59" y="-186"/>
      <point x="213" y="-222"/>
      <point x="327" y="-222" type="curve" smooth="yes"/>
      <point x="455" y="-222"/>
      <point x="538" y="-176"/>
      <point x="538" y="-103" type="curve" smooth="yes"/>
      <point x="538" y="-65"/>
      <point x="507" y="-10"/>
      <point x="420" y="-10" type="curve" smooth="yes"/>
      <point x="334" y="-10"/>
      <point x="294" y="-50"/>
      <point x="294" y="-100" type="curve" smooth="yes"/>
      <point x="294" y="-130"/>
      <point x="309" y="-164"/>
      <point x="337" y="-195" type="curve"/>
      <point x="415" y="-182" type="line"/>
      <point x="391" y="-165"/>
      <point x="376" y="-137"/>
      <point x="376" y="-114" type="curve" smooth="yes"/>
      <point x="376" y="-92"/>
      <point x="389" y="-75"/>
      <point x="419" y="-75" type="curve" smooth="yes"/>
      <point x="443" y="-75"/>
      <point x="454" y="-87"/>
      <point x="454" y="-101" type="curve" smooth="yes"/>
      <point x="454" y="-136"/>
      <point x="413" y="-148"/>
      <point x="309" y="-148" type="curve" smooth="yes"/>
      <point x="184" y="-148"/>
      <point x="143" y="-92"/>
      <point x="143" y="-38" type="curve" smooth="yes"/>
      <point x="143" y="18"/>
      <point x="183" y="42"/>
      <point x="264" y="42" type="curve" smooth="yes"/>
      <point x="445" y="42" type="line"/>
      <point x="445" y="228" type="line"/>
      <point x="361" y="228" type="line"/>
    </contour>
    <contour>
      <point x="947" y="606" type="line"/>
      <point x="947" y="0" type="line"/>
      <point x="1032" y="0" type="line"/>
      <point x="1032" y="606" type="line"/>
    </contour>
    <contour>
      <point x="819" y="658" type="line"/>
      <point x="819" y="583" type="line"/>
      <point x="1161" y="583" type="line"/>
      <point x="1161" y="658" type="line"/>
    </contour>
    <contour>
      <point x="1030" y="658" type="move" name="imatra"/>
    </contour>
    <contour>
      <point x="989" y="0" type="move" name="bottom"/>
    </contour>
    <contour>
      <point x="989" y="658" type="move" name="top"/>
    </contour>
  </outline>
</glyph>
<glyph name="ddh_ya-deva" format="1">
  <advance width="1140"/>
  <outline>
    <contour>
      <point x="508" y="658" type="line"/>
      <point x="508" y="583" type="line"/>
      <point x="935" y="583" type="line"/>
      <point x="935" y="658" type="line"/>
    </contour>
    <contour>
      <point x="360" y="594" type="line"/>
      <point x="360" y="475" type="line"/>
      <point x="292" y="475" type="line" smooth="yes"/>
      <point x="141" y="475"/>
      <point x="55" y="397"/>
      <point x="55" y="259" type="curve" smooth="yes"/>
      <point x="55" y="127"/>
      <point x="157" y="39"/>
      <point x="310" y="39" type="curve" smooth="yes"/>
      <point x="433" y="39"/>
      <point x="515" y="102"/>
      <point x="515" y="193" type="curve" smooth="yes"/>
      <point x="515" y="273"/>
      <point x="462" y="323"/>
      <point x="382" y="323" type="curve" smooth="yes"/>
      <point x="297" y="323"/>
      <point x="243" y="277"/>
      <point x="243" y="200" type="curve" smooth="yes"/>
      <point x="243" y="157"/>
      <point x="255" y="122"/>
      <point x="287" y="85" type="curve"/>
      <point x="367" y="90" type="line"/>
      <point x="339" y="123"/>
      <point x="325" y="157"/>
      <point x="325" y="192" type="curve" smooth="yes"/>
      <point x="325" y="217"/>
      <point x="335" y="247"/>
      <point x="378" y="247" type="curve" smooth="yes"/>
      <point x="408" y="247"/>
      <point x="433" y="227"/>
      <point x="433" y="193" type="curve" smooth="yes"/>
      <point x="433" y="145"/>
      <point x="387" y="113"/>
      <point x="320" y="113" type="curve" smooth="yes"/>
      <point x="207" y="113"/>
      <point x="139" y="167"/>
      <point x="139" y="259" type="curve" smooth="yes"/>
      <point x="139" y="346"/>
      <point x="196" y="401"/>
      <point x="287" y="401" type="curve" smooth="yes"/>
      <point x="444" y="401" type="line"/>
      <point x="444" y="594" type="line"/>
    </contour>
    <contour>
      <point x="-20" y="658" type="line"/>
      <point x="-20" y="583" type="line"/>
      <point x="588" y="583" type="line"/>
      <point x="588" y="658" type="line"/>
    </contour>
    <contour>
      <point x="1009" y="195" type="line"/>
      <point x="964" y="140"/>
      <point x="903" y="109"/>
      <point x="844" y="109" type="curve" smooth="yes"/>
      <point x="778" y="109"/>
      <point x="725" y="140"/>
      <point x="709" y="214" type="curve"/>
      <point x="776" y="246"/>
      <point x="829" y="298"/>
      <point x="829" y="376" type="curve" smooth="yes"/>
      <point x="829" y="436"/>
      <point x="789" y="475"/>
      <point x="729" y="475" type="curve" smooth="yes"/>
      <point x="396" y="475" type="line"/>
      <point x="396" y="401" type="line"/>
      <point x="713" y="401" type="line" smooth="yes"/>
      <point x="735" y="401"/>
      <point x="746" y="389"/>
      <point x="746" y="367" type="curve" smooth="yes"/>
      <point x="746" y="310"/>
      <point x="690" y="280"/>
      <point x="615" y="256" type="curve"/>
      <point x="632" y="106"/>
      <point x="713" y="35"/>
      <point x="844" y="35" type="curve" smooth="yes"/>
      <point x="903" y="35"/>
      <point x="960" y="53"/>
      <point x="1009" y="89" type="curve"/>
    </contour>
    <contour>
      <point x="944" y="606" type="line"/>
      <point x="944" y="0" type="line"/>
      <point x="1029" y="0" type="line"/>
      <point x="1029" y="606" type="line"/>
    </contour>
    <contour>
      <point x="816" y="658" type="line"/>
      <point x="816" y="583" type="line"/>
      <point x="1158" y="583" type="line"/>
      <point x="1158" y="658" type="line"/>
    </contour>
    <contour>
      <point x="1027" y="658" type="move" name="imatra"/>
    </contour>
    <contour>
      <point x="987" y="0" type="move" name="bottom"/>
    </contour>
    <contour>
      <point x="987" y="658" type="move" name="top"/>
    </contour>
  </outline>
</glyph>
<glyph name="dh-deva" format="1">
  <advance width="418"/>
  <outline>
    <contour>
      <point x="151" y="407"/>
      <point x="74" y="345"/>
      <point x="74" y="239" type="curve" smooth="yes"/>
      <point x="74" y="138"/>
      <point x="158" y="73"/>
      <point x="288" y="73" type="curve" smooth="yes"/>
      <point x="394" y="73"/>
      <point x="497" y="118"/>
      <point x="553" y="189" type="curve"/>
      <point x="534" y="289" type="line"/>
      <point x="496" y="210"/>
      <point x="385" y="149"/>
      <point x="280" y="149" type="curve" smooth="yes"/>
      <point x="204" y="149"/>
      <point x="158" y="183"/>
      <point x="158" y="239" type="curve" smooth="yes"/>
      <point x="158" y="297"/>
      <point x="205" y="332"/>
      <point x="282" y="332" type="curve" smooth="yes"/>
      <point x="309" y="332"/>
      <point x="324" y="331"/>
      <point x="347" y="327" type="curve"/>
      <point x="332" y="403" type="line"/>
      <point x="318" y="406"/>
      <point x="305" y="407"/>
      <point x="282" y="407" type="curve" smooth="yes"/>
    </contour>
    <contour>
      <point x="141" y="659"/>
      <point x="76" y="605"/>
      <point x="76" y="524" type="curve" smooth="yes"/>
      <point x="76" y="450"/>
      <point x="128" y="380"/>
      <point x="209" y="345" type="curve"/>
      <point x="268" y="389" type="line"/>
      <point x="207" y="413"/>
      <point x="165" y="465"/>
      <point x="165" y="516" type="curve" smooth="yes"/>
      <point x="165" y="557"/>
      <point x="193" y="583"/>
      <point x="238" y="583" type="curve" smooth="yes"/>
      <point x="282" y="583"/>
      <point x="308" y="560"/>
      <point x="308" y="521" type="curve" smooth="yes"/>
      <point x="308" y="506"/>
      <point x="302" y="487"/>
      <point x="290" y="470" type="curve"/>
      <point x="361" y="449" type="line"/>
      <point x="376" y="467"/>
      <point x="385" y="492"/>
      <point x="385" y="518" type="curve" smooth="yes"/>
      <point x="385" y="599"/>
      <point x="323" y="659"/>
      <point x="239" y="659" type="curve" smooth="yes"/>
    </contour>
    <contour>
      <point x="219" y="658" type="move" name="top"/>
    </contour>
    <contour>
      <point x="260" y="0" type="move" name="bottom"/>
    </contour>
  </outline>
</glyph>
<glyph name="f_i" format="1">
  <advance width="607"/>
  <outline>
    <contour>
      <point x="525" y="514" type="line"/>
      <point x="198" y="514" type="line"/>
      <point x="198" y="570" type="line" smooth="yes"/>
      <point x="198" y="636"/>
      <point x="239" y="671"/>
      <point x="317" y="671" type="curve" smooth="yes"/>
      <point x="371" y="671"/>
      <point x="415" y="648"/>
      <point x="434" y="609" type="curve"/>
      <point x="521" y="629" type="line"/>
      <point x="480" y="712"/>
      <point x="410" y="755"/>
      <point x="317" y="755" type="curve" smooth="yes"/>
      <point x="177" y="755"/>
      <point x="104" y="689"/>
      <point x="104" y="563" type="curve" smooth="yes"/>
      <point x="104" y="514" type="line"/>
      <point x="14" y="514" type="line"/>
      <point x="14" y="433" type="line"/>
      <point x="104" y="433" type="line"/>
      <point x="104" y="-153" type="line"/>
      <point x="166" y="-153" type="line"/>
      <point x="189" y="-89"/>
      <point x="198" y="-36"/>
      <point x="198" y="33" type="curve" smooth="yes"/>
      <point x="198" y="433" type="line"/>
      <point x="431" y="433" type="line"/>
      <point x="431" y="0" type="line"/>
      <point x="525" y="0" type="line"/>
    </contour>
  </outline>
</glyph>
<glyph name="f_l" format="1">
  <advance width="610"/>
  <outline>
    <contour>
      <point x="182" y="755"/>
      <point x="104" y="684"/>
      <point x="104" y="558" type="curve" smooth="yes"/>
      <point x="104" y="514" type="line"/>
      <point x="14" y="514" type="line"/>
      <point x="14" y="433" type="line"/>
      <point x="104" y="433" type="line"/>
      <point x="104" y="-153" type="line"/>
      <point x="166" y="-153" type="line"/>
      <point x="189" y="-89"/>
      <point x="198" y="-36"/>
      <point x="198" y="33" type="curve" smooth="yes"/>
      <point x="198" y="433" type="line"/>
      <point x="344" y="433" type="line"/>
      <point x="344" y="514" type="line"/>
      <point x="198" y="514" type="line"/>
      <point x="198" y="565" type="line" smooth="yes"/>
      <point x="198" y="639"/>
      <point x="242" y="680"/>
      <point x="320" y="680" type="curve" smooth="yes"/>
      <point x="355" y="680"/>
      <point x="392" y="675"/>
      <point x="433" y="663" type="curve"/>
      <point x="433" y="0" type="line"/>
      <point x="527" y="0" type="line"/>
      <point x="527" y="708" type="line"/>
      <point x="449" y="740"/>
      <point x="381" y="755"/>
      <point x="320" y="755" type="curve" smooth="yes"/>
    </contour>
  </outline>
</glyph>
<glyph name="g-deva" format="1">
  <advance width="282"/>
  <outline>
    <contour>
      <point x="195" y="331" type="curve"/>
      <point x="195" y="609" type="line"/>
      <point x="110" y="609" type="line"/>
      <point x="110" y="361" type="line"/>
      <point x="56" y="361"/>
      <point x="30" y="356"/>
      <point x="30" y="316" type="curve" smooth="yes"/>
      <point x="30" y="274"/>
      <point x="89" y="175"/>
      <point x="144" y="175" type="curve" smooth="yes"/>
      <point x="183" y="175"/>
      <point x="195" y="220"/>
    </contour>
    <contour>
      <point x="-20" y="583" type="line"/>
      <point x="302" y="583" type="line"/>
      <point x="302" y="658" type="line"/>
      <point x="-20" y="658" type="line"/>
    </contour>
    <contour>
      <point x="137" y="92" type="move" name="nukta"/>
    </contour>
    <contour>
      <point x="141" y="0" type="move" name="bottom"/>
    </contour>
    <contour>
      <point x="153" y="658" type="move" name="top"/>
    </contour>
  </outline>
</glyph>
<glyph name="g_na-deva" format="1">
  <advance width="588"/>
  <outline>
    <contour>
      <point x="126" y="52" type="line" smooth="yes"/>
      <point x="103" y="33"/>
      <point x="93" y="21"/>
      <point x="93" y="5" type="curve" smooth="yes"/>
      <point x="93" y="-26"/>
      <point x="144" y="-62"/>
      <point x="215" y="-62" type="curve" smooth="yes"/>
      <point x="267" y="-62"/>
      <point x="285" y="-47"/>
      <point x="285" y="-34" type="curve" smooth="yes"/>
      <point x="285" y="-14"/>
      <point x="266" y="17"/>
      <point x="210" y="58" type="curve"/>
      <point x="154" y="10" type="line"/>
      <point x="206" y="-52" type="line"/>
      <point x="227" y="40" type="line"/>
      <point x="432" y="214" type="line"/>
      <point x="414" y="298" type="line"/>
    </contour>
    <contour>
      <point x="393" y="606" type="line"/>
      <point x="393" y="0" type="line"/>
      <point x="478" y="0" type="line"/>
      <point x="478" y="606" type="line"/>
    </contour>
    <contour>
      <point x="265" y="658" type="line"/>
      <point x="265" y="583" type="line"/>
      <point x="607" y="583" type="line"/>
      <point x="607" y="658" type="line"/>
    </contour>
    <component base="g-deva"/>
    <contour>
      <point x="476" y="658" type="move" name="imatra"/>
    </contour>
  </outline>
</glyph>
<glyph name="gh_ra-deva" format="1">
  <advance width="654"/>
  <outline>
    <contour>
      <point x="159" y="-7" type="line"/>
      <point x="209" y="-65" type="line"/>
      <point x="490" y="154" type="line"/>
      <point x="490" y="246" type="line"/>
    </contour>
    <component base="gha-deva"/>
    <contour>
      <point x="502" y="658" type="move" name="top"/>
    </contour>
    <contour>
      <point x="501" y="0" type="move" name="bottom"/>
    </contour>
  </outline>
</glyph>
<glyph name="h_ra-deva" format="1">
  <advance width="590"/>
  <outline>
    <contour>
      <point x="234" y="76" type="line"/>
      <point x="279" y="15" type="line"/>
      <point x="466" y="161" type="line"/>
      <point x="466" y="253" type="line"/>
    </contour>
    <component base="ha-deva.alt"/>
    <contour>
      <point x="404" y="658" type="move" name="top"/>
    </contour>
    <contour>
      <point x="324" y="-187" type="move" name="bottom"/>
    </contour>
  </outline>
</glyph>
<glyph name="iMatra-deva.00" format="1">
  <advance width="305"/>
  <outline>
    <contour>
      <point x="151" y="915"/>
      <point x="80" y="856"/>
      <point x="80" y="763" type="curve" smooth="yes"/>
      <point x="80" y="735"/>
      <point x="89" y="692"/>
      <point x="103" y="648" type="curve"/>
      <point x="188" y="648" type="line"/>
      <point x="173" y="672"/>
      <point x="165" y="709"/>
      <point x="165" y="752" type="curve" smooth="yes"/>
      <point x="165" y="806"/>
      <point x="207" y="841"/>
      <point x="272" y="841" type="curve" smooth="yes"/>
      <point x="328" y="841"/>
      <point x="390" y="790"/>
      <point x="425" y="714" type="curve"/>
      <point x="495" y="755" type="line"/>
      <point x="441" y="859"/>
      <point x="361" y="915"/>
      <point x="264" y="915" type="curve" smooth="yes"/>
    </contour>
    <contour>
      <point x="110" y="606" type="line"/>
      <point x="110" y="0" type="line"/>
      <point x="195" y="0" type="line"/>
      <point x="195" y="606" type="line"/>
    </contour>
    <contour>
      <point x="-18" y="658" type="line"/>
      <point x="-18" y="583" type="line"/>
      <point x="324" y="583" type="line"/>
      <point x="324" y="658" type="line"/>
    </contour>
    <contour>
      <point x="495" y="755" type="move" name="imatra"/>
    </contour>
    <contour>
      <point x="153" y="0" type="move" name="bottom"/>
    </contour>
    <contour>
      <point x="495" y="835" type="move" name="top"/>
    </contour>
  </outline>
</glyph>
<glyph name="iMatra-deva.13" format="1">
  <advance width="305"/>
  <outline>
    <contour>
      <point x="250" y="915"/>
      <point x="80" y="854"/>
      <point x="80" y="720" type="curve" smooth="yes"/>
      <point x="80" y="694"/>
      <point x="89" y="660"/>
      <point x="103" y="630" type="curve"/>
      <point x="188" y="630" type="line"/>
      <point x="173" y="653"/>
      <point x="165" y="682"/>
      <point x="165" y="709" type="curve" smooth="yes"/>
      <point x="165" y="807"/>
      <point x="309" y="848"/>
      <point x="727" y="848" type="curve" smooth="yes"/>
      <point x="914" y="848"/>
      <point x="1466" y="809"/>
      <point x="1900" y="736" type="curve"/>
      <point x="1921" y="805" type="line"/>
      <point x="1525" y="873"/>
      <point x="968" y="915"/>
      <point x="726" y="915" type="curve" smooth="yes"/>
    </contour>
    <contour>
      <point x="110" y="606" type="line"/>
      <point x="110" y="0" type="line"/>
      <point x="195" y="0" type="line"/>
      <point x="195" y="606" type="line"/>
    </contour>
    <contour>
      <point x="-18" y="658" type="line"/>
      <point x="-18" y="583" type="line"/>
      <point x="324" y="583" type="line"/>
      <point x="324" y="658" type="line"/>
    </contour>
    <contour>
      <point x="1921" y="805" type="move" name="imatra"/>
    </contour>
    <contour>
      <point x="153" y="0" type="move" name="bottom"/>
    </contour>
    <contour>
      <point x="1921" y="885" type="move" name="top"/>
    </contour>
  </outline>
</glyph>
<glyph name="iMatra_reph-deva.04" format="1">
  <advance width="305"/>
  <outline>
    <component base="iMatra-deva.04"/>
    <component base="reph-deva.imatra" xOffset="744" yOffset="122"/>
    <contour>
      <point x="934" y="770" type="move" name="imatra"/>
    </contour>
    <contour>
      <point x="153" y="0" type="move" name="bottom"/>
    </contour>
    <contour>
      <point x="934" y="1020" type="move" name="top"/>
    </contour>
  </outline>
</glyph>
<glyph name="iMatra_reph-deva.10" format="1">
  <advance width="305"/>
  <outline>
    <component base="iMatra-deva.10"/>
    <component base="reph-deva.imatra" xOffset="1402" yOffset="146"/>
    <contour>
      <point x="1592" y="794" type="move" name="imatra"/>
    </contour>
    <contour>
      <point x="153" y="0" type="move" name="bottom"/>
    </contour>
    <contour>
      <point x="1592" y="1020" type="move" name="top"/>
    </contour>
  </outline>
</glyph>
<glyph name="iMatra_reph-deva.11" format="1">
  <advance width="305"/>
  <outline>
    <component base="iMatra-deva.11"/>
    <component base="reph-deva.imatra" xOffset="1511" yOffset="150"/>
    <contour>
      <point x="1701" y="798" type="move" name="imatra"/>
    </contour>
    <contour>
      <point x="153" y="0" type="move" name="bottom"/>
    </contour>
    <contour>
      <point x="1701" y="1020" type="move" name="top"/>
    </contour>
  </outline>
</glyph>
<glyph name="iMatra_reph_anusvara-deva.00" format="1">
  <advance width="305"/>
  <outline>
    <component base="iMatra-deva.00"/>
    <component base="reph_anusvara-deva.imatra" xOffset="343" yOffset="107"/>
    <contour>
      <point x="495" y="755" type="move" name="imatra"/>
    </contour>
    <contour>
      <point x="153" y="0" type="move" name="bottom"/>
    </contour>
    <contour>
      <point x="495" y="1020" type="move" name="top"/>
    </contour>
  </outline>
</glyph>
<glyph name="iMatra_reph_anusvara-deva.06" format="1">
  <advance width="305"/>
  <outline>
    <component base="iMatra-deva.06"/>
    <component base="reph_anusvara-deva.imatra" xOffset="1001" yOffset="130"/>
    <contour>
      <point x="1153" y="778" type="move" name="imatra"/>
    </contour>
    <contour>
      <point x="153" y="0" type="move" name="bottom"/>
    </contour>
    <contour>
      <point x="1153" y="1020" type="move" name="top"/>
    </contour>
  </outline>
</glyph>
<glyph name="iMatra_reph_anusvara-deva.11" format="1">
  <advance width="305"/>
  <outline>
    <component base="iMatra-deva.11"/>
    <component base="reph_anusvara-deva.imatra" xOffset="1549" yOffset="150"/>
    <contour>
      <point x="1701" y="798" type="move" name="imatra"/>
    </contour>
    <contour>
      <point x="153" y="0" type="move" name="bottom"/>
    </contour>
    <contour>
      <point x="1701" y="1020" type="move" name="top"/>
    </contour>
  </outline>
</glyph>
<glyph name="iMatra_reph_anusvara-deva" format="1">
  <advance width="305"/>
  <outline>
    <component base="iMatra-deva.01"/>
    <component base="reph_anusvara-deva.imatra" xOffset="453" yOffset="111"/>
    <contour>
      <point x="605" y="759" type="move" name="imatra"/>
    </contour>
    <contour>
      <point x="153" y="0" type="move" name="bottom"/>
    </contour>
    <contour>
      <point x="605" y="1020" type="move" name="top"/>
    </contour>
  </outline>
</glyph>
<glyph name="iiMatra-deva.01" format="1">
  <advance width="319"/>
  <outline>
    <contour>
      <point x="-392" y="917"/>
      <point x="-489" y="879"/>
      <point x="-489" y="781" type="curve" smooth="yes"/>
      <point x="-489" y="759"/>
      <point x="-483" y="738"/>
      <point x="-473" y="717" type="curve"/>
      <point x="-404" y="737" type="line"/>
      <point x="-409" y="750"/>
      <point x="-412" y="762"/>
      <point x="-412" y="773" type="curve" smooth="yes"/>
      <point x="-412" y="824"/>
      <point x="-353" y="844"/>
      <point x="-279" y="844" type="curve" smooth="yes"/>
      <point x="-123" y="844"/>
      <point x="16" y="788"/>
      <point x="107" y="653" type="curve"/>
      <point x="191" y="653" type="line"/>
      <point x="85" y="830"/>
      <point x="-72" y="917"/>
      <point x="-278" y="917" type="curve" smooth="yes"/>
    </contour>
    <component base="aaMatra-deva"/>
    <contour>
      <point x="187" y="658" type="move" name="imatra"/>
    </contour>
    <contour>
      <point x="166" y="0" type="move" name="bottom"/>
    </contour>
    <contour>
      <point x="220" y="731" type="move" name="top"/>
    </contour>
  </outline>
</glyph>
<glyph name="iiMatra_reph_anusvara-deva.01" format="1">
  <advance width="319"/>
  <outline>
    <component base="iiMatra-deva.01"/>
    <component base="reph_anusvara-deva" xOffset="-12"/>
    <contour>
      <point x="186" y="910" type="move" name="top"/>
    </contour>
    <contour>
      <point x="160" y="0" type="move" name="bottom"/>
    </contour>
  </outline>
</glyph>
<glyph name="iiMatra_reph_anusvara-deva" format="1">
  <advance width="319"/>
  <note>
    dMatraIiRephAnusvara
  </note>
  <outline>
    <component base="iiMatra-deva"/>
    <component base="reph_anusvara-deva.imatra" xOffset="41" yOffset="10"/>
    <contour>
      <point x="185" y="908" type="move" name="top"/>
    </contour>
    <contour>
      <point x="166" y="0" type="move" name="bottom"/>
    </contour>
  </outline>
</glyph>
<glyph name="jh-deva.loclNEP" format="1">
  <advance width="656"/>
  <outline>
    <contour>
      <point x="803" y="451" type="line"/>
      <point x="760" y="469"/>
      <point x="712" y="478"/>
      <point x="671" y="478" type="curve" smooth="yes"/>
      <point x="576" y="478"/>
      <point x="492" y="430"/>
      <point x="447" y="337" type="curve"/>
      <point x="505" y="299" type="line"/>
      <point x="536" y="368"/>
      <point x="588" y="401"/>
      <point x="656" y="401" type="curve" smooth="yes"/>
      <point x="698" y="401"/>
      <point x="750" y="389"/>
      <point x="803" y="366" type="curve"/>
    </contour>
    <contour>
      <point x="-20" y="658" type="line"/>
      <point x="-20" y="583" type="line"/>
      <point x="50" y="583" type="line"/>
      <point x="90" y="583"/>
      <point x="110" y="563"/>
      <point x="110" y="523" type="curve"/>
      <point x="110" y="357" type="line"/>
      <point x="195" y="357" type="line"/>
      <point x="195" y="543" type="line"/>
      <point x="195" y="613"/>
      <point x="150" y="658"/>
      <point x="80" y="658" type="curve"/>
    </contour>
    <contour>
      <point x="70" y="362"/>
      <point x="46" y="352"/>
      <point x="46" y="312" type="curve" smooth="yes"/>
      <point x="46" y="270"/>
      <point x="98" y="201"/>
      <point x="156" y="201" type="curve"/>
      <point x="191" y="201"/>
      <point x="196" y="219"/>
      <point x="201" y="308" type="curve"/>
      <point x="114" y="308" type="line"/>
      <point x="131" y="261" type="line"/>
      <point x="190" y="283" type="line"/>
      <point x="445" y="283" type="line"/>
      <point x="435" y="357" type="line"/>
      <point x="129" y="357" type="line"/>
      <point x="110" y="362" type="line"/>
    </contour>
    <contour>
      <point x="425" y="606" type="line"/>
      <point x="425" y="0" type="line"/>
      <point x="510" y="0" type="line"/>
      <point x="510" y="606" type="line"/>
    </contour>
    <contour>
      <point x="297" y="658" type="line"/>
      <point x="297" y="583" type="line"/>
      <point x="736" y="583" type="line"/>
      <point x="736" y="658" type="line"/>
    </contour>
    <contour>
      <point x="508" y="658" type="move" name="imatra"/>
    </contour>
    <contour>
      <point x="468" y="0" type="move" name="bottom"/>
    </contour>
    <contour>
      <point x="468" y="658" type="move" name="top"/>
    </contour>
  </outline>
</glyph>
<glyph name="kha_compo" format="1">
  <advance width="597"/>
  <outline>
    <contour>
      <point x="12" y="440" type="line"/>
      <point x="51" y="254"/>
      <point x="148" y="160"/>
      <point x="324" y="160" type="curve"/>
      <point x="309" y="230" type="line"/>
      <point x="184" y="238"/>
      <point x="114" y="298"/>
      <point x="83" y="440" type="curve"/>
    </contour>
    <contour>
      <point x="100" y="633" type="line"/>
      <point x="129" y="591"/>
      <point x="154" y="529"/>
      <point x="154" y="497" type="curve" smooth="yes"/>
      <point x="154" y="465"/>
      <point x="137" y="451"/>
      <point x="113" y="451" type="curve" smooth="yes"/>
      <point x="87" y="451"/>
      <point x="67" y="460"/>
      <point x="50" y="475" type="curve"/>
      <point x="12" y="440" type="line"/>
      <point x="36" y="403"/>
      <point x="100" y="381"/>
      <point x="139" y="381" type="curve" smooth="yes"/>
      <point x="198" y="381"/>
      <point x="227" y="434"/>
      <point x="227" y="492" type="curve" smooth="yes"/>
      <point x="227" y="540"/>
      <point x="206" y="596"/>
      <point x="169" y="656" type="curve"/>
    </contour>
    <contour>
      <point x="305" y="493"/>
      <point x="251" y="452"/>
      <point x="251" y="378" type="curve" smooth="yes"/>
      <point x="251" y="308"/>
      <point x="300" y="261"/>
      <point x="370" y="261" type="curve" smooth="yes"/>
      <point x="433" y="261"/>
      <point x="477" y="292"/>
      <point x="513" y="340" type="curve"/>
      <point x="475" y="395" type="line"/>
      <point x="460" y="363"/>
      <point x="421" y="326"/>
      <point x="377" y="326" type="curve" smooth="yes"/>
      <point x="345" y="326"/>
      <point x="324" y="346"/>
      <point x="324" y="378" type="curve" smooth="yes"/>
      <point x="324" y="408"/>
      <point x="346" y="429"/>
      <point x="376" y="429" type="curve" smooth="yes"/>
      <point x="385" y="429"/>
      <point x="396" y="429"/>
      <point x="404" y="428" type="curve"/>
      <point x="395" y="492" type="line"/>
      <point x="391" y="493"/>
      <point x="387" y="493"/>
      <point x="379" y="493" type="curve" smooth="yes"/>
    </contour>
    <contour>
      <point x="448" y="630" type="line"/>
      <point x="448" y="160" type="line"/>
      <point x="522" y="160" type="line"/>
      <point x="522" y="630" type="line"/>
    </contour>
  </outline>
</glyph>
<glyph name="l_la-deva.loclMAR" format="1">
  <advance width="757"/>
  <outline>
    <contour>
      <point x="-30" y="658" type="line"/>
      <point x="-30" y="583" type="line"/>
      <point x="787" y="583" type="line"/>
      <point x="787" y="658" type="line"/>
    </contour>
    <contour>
      <point x="494" y="609" type="line"/>
      <point x="494" y="450" type="line"/>
      <point x="579" y="450" type="line"/>
      <point x="579" y="609" type="line"/>
    </contour>
    <contour>
      <point x="189" y="170" type="line"/>
      <point x="151" y="225"/>
      <point x="139" y="268"/>
      <point x="139" y="311" type="curve" smooth="yes"/>
      <point x="139" y="361"/>
      <point x="176" y="403"/>
      <point x="226" y="403" type="curve" smooth="yes"/>
      <point x="294" y="403"/>
      <point x="326" y="348"/>
      <point x="351" y="281" type="curve"/>
      <point x="400" y="344" type="line"/>
      <point x="358" y="438"/>
      <point x="301" y="477"/>
      <point x="223" y="477" type="curve" smooth="yes"/>
      <point x="127" y="477"/>
      <point x="55" y="413"/>
      <point x="55" y="319" type="curve" smooth="yes"/>
      <point x="55" y="257"/>
      <point x="67" y="204"/>
      <point x="121" y="128" type="curve"/>
    </contour>
    <contour>
      <point x="637" y="129" type="line"/>
      <point x="690" y="204"/>
      <point x="702" y="257"/>
      <point x="702" y="319" type="curve" smooth="yes"/>
      <point x="702" y="413"/>
      <point x="630" y="477"/>
      <point x="534" y="477" type="curve" smooth="yes"/>
      <point x="408" y="477"/>
      <point x="367" y="390"/>
      <point x="309" y="285" type="curve"/>
      <point x="374" y="249" type="line"/>
      <point x="435" y="360"/>
      <point x="465" y="402"/>
      <point x="532" y="403" type="curve" smooth="yes"/>
      <point x="582" y="402"/>
      <point x="618" y="361"/>
      <point x="618" y="311" type="curve" smooth="yes"/>
      <point x="618" y="271"/>
      <point x="607" y="232"/>
      <point x="576" y="182" type="curve"/>
    </contour>
    <contour>
      <point x="237" y="-142" type="line"/>
      <point x="161" y="-54"/>
      <point x="139" y="3"/>
      <point x="139" y="61" type="curve" smooth="yes"/>
      <point x="139" y="111"/>
      <point x="176" y="153"/>
      <point x="226" y="153" type="curve" smooth="yes"/>
      <point x="294" y="153"/>
      <point x="326" y="98"/>
      <point x="351" y="31" type="curve"/>
      <point x="400" y="94" type="line"/>
      <point x="358" y="188"/>
      <point x="301" y="227"/>
      <point x="223" y="227" type="curve" smooth="yes"/>
      <point x="127" y="227"/>
      <point x="55" y="163"/>
      <point x="55" y="69" type="curve" smooth="yes"/>
      <point x="55" y="-11"/>
      <point x="75" y="-76"/>
      <point x="178" y="-193" type="curve"/>
    </contour>
    <contour>
      <point x="586" y="-185" type="line"/>
      <point x="683" y="-73"/>
      <point x="702" y="-9"/>
      <point x="702" y="69" type="curve" smooth="yes"/>
      <point x="702" y="163"/>
      <point x="630" y="227"/>
      <point x="534" y="227" type="curve" smooth="yes"/>
      <point x="408" y="227"/>
      <point x="367" y="140"/>
      <point x="309" y="35" type="curve"/>
      <point x="374" y="-1" type="line"/>
      <point x="435" y="110"/>
      <point x="465" y="152"/>
      <point x="532" y="153" type="curve" smooth="yes"/>
      <point x="582" y="152"/>
      <point x="618" y="111"/>
      <point x="618" y="61" type="curve" smooth="yes"/>
      <point x="618" y="5"/>
      <point x="597" y="-51"/>
      <point x="525" y="-136" type="curve"/>
    </contour>
    <contour>
      <point x="596" y="658" type="move" name="top"/>
    </contour>
    <contour>
      <point x="596" y="0" type="move" name="bottom"/>
    </contour>
  </outline>
</glyph>
<glyph name="ny-deva" format="1">
  <advance width="450"/>
  <outline>
    <contour>
      <point x="205" y="477"/>
      <point x="167" y="469"/>
      <point x="130" y="454" type="curve"/>
      <point x="158" y="384" type="line"/>
      <point x="183" y="397"/>
      <point x="208" y="403"/>
      <point x="237" y="403" type="curve" smooth="yes"/>
      <point x="310" y="403"/>
      <point x="361" y="358"/>
      <point x="361" y="293" type="curve" smooth="yes"/>
      <point x="361" y="227"/>
      <point x="315" y="187"/>
      <point x="246" y="187" type="curve" smooth="yes"/>
      <point x="184" y="187"/>
      <point x="134" y="210"/>
      <point x="83" y="282" type="curve"/>
      <point x="26" y="241" type="line"/>
      <point x="98" y="146"/>
      <point x="166" y="113"/>
      <point x="256" y="113" type="curve" smooth="yes"/>
      <point x="362" y="113"/>
      <point x="445" y="183"/>
      <point x="445" y="293" type="curve" smooth="yes"/>
      <point x="445" y="402"/>
      <point x="360" y="477"/>
      <point x="237" y="477" type="curve" smooth="yes"/>
    </contour>
    <contour>
      <point x="408" y="272" type="line"/>
      <point x="430" y="261"/>
      <point x="465" y="255"/>
      <point x="500" y="255" type="curve" smooth="yes"/>
      <point x="533" y="255"/>
      <point x="563" y="261"/>
      <point x="580" y="271" type="curve"/>
      <point x="565" y="339" type="line"/>
      <point x="545" y="334"/>
      <point x="522" y="331"/>
      <point x="499" y="331" type="curve" smooth="yes"/>
      <point x="466" y="331"/>
      <point x="434" y="335"/>
      <point x="409" y="343" type="curve"/>
    </contour>
    <contour>
      <point x="-30" y="658" type="line"/>
      <point x="-30" y="583" type="line"/>
      <point x="480" y="583" type="line"/>
      <point x="480" y="658" type="line"/>
    </contour>
    <contour>
      <point x="257" y="658" type="move" name="top"/>
    </contour>
    <contour>
      <point x="257" y="35" type="move" name="bottom"/>
    </contour>
  </outline>
</glyph>
<glyph name="puso" format="1">
  <advance width="230"/>
  <outline>
    <contour>
      <point x="55" y="708" type="line"/>
      <point x="80" y="554" type="line"/>
      <point x="89" y="394" type="line"/>
      <point x="150" y="394" type="line"/>
      <point x="150" y="708" type="line"/>
    </contour>
  </outline>
</glyph>
<glyph name="reph_anusvara-deva" format="1">
  <advance width="270"/>
  <note>
    dRephAnusvara
  </note>
  <outline>
    <component base="anusvara-deva" xOffset="149" yOffset="109" xScale="0.888" yScale="0.888"/>
    <component base="reph-deva" xOffset="-16" yOffset="11"/>
    <contour>
      <point x="199" y="658" type="move" name="_imatra"/>
    </contour>
    <contour>
      <point x="173" y="658" type="move" name="_top"/>
    </contour>
  </outline>
</glyph>
<glyph name="reph_anusvara-deva.imatra" format="1">
  <advance width="294"/>
  <outline>
    <contour>
      <point x="173" y="834"/>
      <point x="153" y="814"/>
      <point x="153" y="789" type="curve" smooth="yes"/>
      <point x="153" y="764"/>
      <point x="173" y="743"/>
      <point x="198" y="743" type="curve" smooth="yes"/>
      <point x="223" y="743"/>
      <point x="243" y="764"/>
      <point x="243" y="789" type="curve" smooth="yes"/>
      <point x="243" y="814"/>
      <point x="223" y="834"/>
      <point x="198" y="834" type="curve" smooth="yes"/>
    </contour>
    <component base="reph-deva.imatra" xOffset="-37"/>
    <contour>
      <point x="152" y="648" type="move" name="_imatra"/>
    </contour>
    <contour>
      <point x="108" y="658" type="move" name="_top"/>
    </contour>
  </outline>
</glyph>
<glyph name="rr-deva" format="1">
  <advance width="323"/>
  <outline>
    <contour>
      <point x="46" y="306" type="line"/>
      <point x="104" y="232"/>
      <point x="180" y="197"/>
      <point x="250" y="197" type="curve" smooth="yes"/>
      <point x="306" y="197"/>
      <point x="368" y="220"/>
      <point x="447" y="270" type="curve"/>
      <point x="411" y="344" type="line"/>
      <point x="344" y="292"/>
      <point x="294" y="270"/>
      <point x="249" y="270" type="curve" smooth="yes"/>
      <point x="200" y="270"/>
      <point x="154" y="295"/>
      <point x="99" y="351" type="curve"/>
    </contour>
    <contour>
      <point x="-20" y="658" type="line"/>
      <point x="-20" y="583" type="line"/>
      <point x="343" y="583" type="line"/>
      <point x="343" y="658" type="line"/>
    </contour>
    <contour>
      <point x="162" y="658" type="move" name="top"/>
    </contour>
    <contour>
      <point x="162" y="0" type="move" name="bottom"/>
    </contour>
  </outline>
</glyph>
<glyph name="sh_rVocalic-deva" format="1">
  <advance width="802"/>
  <outline>
    <contour>
      <point x="159" y="661"/>
      <point x="100" y="600"/>
      <point x="100" y="493" type="curve" smooth="yes"/>
      <point x="100" y="359"/>
      <point x="252" y="232"/>
      <point x="445" y="232" type="curve" smooth="yes"/>
      <point x="521" y="232"/>
      <point x="589" y="246"/>
      <point x="661" y="278" type="curve"/>
      <point x="627" y="346" type="line"/>
      <point x="561" y="316"/>
      <point x="511" y="306"/>
      <point x="445" y="306" type="curve" smooth="yes"/>
      <point x="298" y="306"/>
      <point x="184" y="405"/>
      <point x="184" y="493" type="curve" smooth="yes"/>
      <point x="184" y="554"/>
      <point x="213" y="587"/>
      <point x="265" y="587" type="curve" smooth="yes"/>
      <point x="317" y="587"/>
      <point x="346" y="554"/>
      <point x="346" y="498" type="curve" smooth="yes"/>
      <point x="346" y="392"/>
      <point x="174" y="292"/>
      <point x="40" y="262" type="curve"/>
      <point x="58" y="190" type="line"/>
      <point x="215" y="224"/>
      <point x="430" y="342"/>
      <point x="430" y="498" type="curve" smooth="yes"/>
      <point x="430" y="602"/>
      <point x="371" y="661"/>
      <point x="265" y="661" type="curve" smooth="yes"/>
    </contour>
    <contour>
      <point x="606" y="606" type="line"/>
      <point x="606" y="0" type="line"/>
      <point x="691" y="0" type="line"/>
      <point x="691" y="606" type="line"/>
    </contour>
    <contour>
      <point x="478" y="658" type="line"/>
      <point x="478" y="583" type="line"/>
      <point x="820" y="583" type="line"/>
      <point x="820" y="658" type="line"/>
    </contour>
    <contour>
      <point x="666" y="-169"/>
      <point x="635" y="-169" type="curve" smooth="yes"/>
      <point x="597" y="-169"/>
      <point x="579" y="-150"/>
      <point x="579" y="-117" type="curve" smooth="yes"/>
      <point x="579" y="-61"/>
      <point x="661" y="-51"/>
      <point x="717" y="-51" type="curve"/>
      <point x="689" y="21" type="line"/>
      <point x="602" y="21"/>
      <point x="495" y="-16"/>
      <point x="495" y="-118" type="curve" smooth="yes"/>
      <point x="495" y="-181"/>
      <point x="533" y="-245"/>
      <point x="627" y="-245" type="curve" smooth="yes"/>
      <point x="671" y="-245"/>
      <point x="730" y="-227"/>
      <point x="773" y="-191" type="curve"/>
      <point x="739" y="-128" type="line"/>
      <point x="701" y="-152"/>
    </contour>
    <contour>
      <point x="689" y="658" type="move" name="imatra"/>
    </contour>
    <contour>
      <point x="640" y="0" type="move" name="bottom"/>
    </contour>
    <contour>
      <point x="641" y="658" type="move" name="top"/>
    </contour>
  </outline>
</glyph>
<glyph name="sh_ra-deva" format="1">
  <advance width="796"/>
  <outline>
    <contour>
      <point x="292" y="48" type="line"/>
      <point x="342" y="-10" type="line"/>
      <point x="623" y="209" type="line"/>
      <point x="623" y="301" type="line"/>
    </contour>
    <component base="sh-deva.ss02" xOffset="4"/>
    <component base="aaMatra-deva" xOffset="491"/>
    <contour>
      <point x="645" y="658" type="move" name="top"/>
    </contour>
    <contour>
      <point x="645" y="0" type="move" name="bottom"/>
    </contour>
  </outline>
</glyph>
<glyph name="sh_va-deva" format="1">
  <advance width="799"/>
  <outline>
    <contour>
      <point x="604" y="5" type="line"/>
      <point x="604" y="-35" type="line"/>
      <point x="689" y="-35" type="line"/>
      <point x="689" y="5" type="line"/>
    </contour>
    <contour>
      <point x="577" y="-10"/>
      <point x="641" y="57"/>
      <point x="684" y="115" type="curve"/>
      <point x="621" y="171" type="line"/>
      <point x="597" y="120"/>
      <point x="550" y="60"/>
      <point x="459" y="60" type="curve" smooth="yes"/>
      <point x="395" y="60"/>
      <point x="358" y="91"/>
      <point x="358" y="145" type="curve" smooth="yes"/>
      <point x="358" y="197"/>
      <point x="403" y="237"/>
      <point x="451" y="257" type="curve"/>
      <point x="375" y="294" type="line"/>
      <point x="329" y="282"/>
      <point x="274" y="216"/>
      <point x="274" y="145" type="curve" smooth="yes"/>
      <point x="274" y="45"/>
      <point x="356" y="-10"/>
      <point x="456" y="-10" type="curve" smooth="yes"/>
    </contour>
    <contour>
      <point x="163" y="661"/>
      <point x="104" y="600"/>
      <point x="104" y="493" type="curve" smooth="yes"/>
      <point x="104" y="359"/>
      <point x="256" y="232"/>
      <point x="449" y="232" type="curve" smooth="yes"/>
      <point x="525" y="232"/>
      <point x="593" y="246"/>
      <point x="665" y="278" type="curve"/>
      <point x="631" y="346" type="line"/>
      <point x="565" y="316"/>
      <point x="515" y="306"/>
      <point x="449" y="306" type="curve" smooth="yes"/>
      <point x="302" y="306"/>
      <point x="188" y="405"/>
      <point x="188" y="493" type="curve" smooth="yes"/>
      <point x="188" y="554"/>
      <point x="217" y="587"/>
      <point x="269" y="587" type="curve" smooth="yes"/>
      <point x="321" y="587"/>
      <point x="350" y="554"/>
      <point x="350" y="498" type="curve" smooth="yes"/>
      <point x="350" y="392"/>
      <point x="178" y="292"/>
      <point x="44" y="262" type="curve"/>
      <point x="62" y="190" type="line"/>
      <point x="219" y="224"/>
      <point x="434" y="342"/>
      <point x="434" y="498" type="curve" smooth="yes"/>
      <point x="434" y="602"/>
      <point x="375" y="661"/>
      <point x="269" y="661" type="curve" smooth="yes"/>
    </contour>
    <contour>
      <point x="604" y="606" type="line"/>
      <point x="604" y="0" type="line"/>
      <point x="689" y="0" type="line"/>
      <point x="689" y="606" type="line"/>
    </contour>
    <contour>
      <point x="476" y="658" type="line"/>
      <point x="476" y="583" type="line"/>
      <point x="818" y="583" type="line"/>
      <point x="818" y="658" type="line"/>
    </contour>
    <contour>
      <point x="687" y="658" type="move" name="imatra"/>
    </contour>
    <contour>
      <point x="648" y="0" type="move" name="bottom"/>
    </contour>
    <contour>
      <point x="648" y="658" type="move" name="top"/>
    </contour>
  </outline>
</glyph>
<glyph name="ss_ra-deva" format="1">
  <advance width="547"/>
  <outline>
    <contour>
      <point x="78" y="48" type="line"/>
      <point x="128" y="-10" type="line"/>
      <point x="409" y="209" type="line"/>
      <point x="409" y="301" type="line"/>
    </contour>
    <component base="ssa-deva"/>
    <contour>
      <point x="395" y="658" type="move" name="top"/>
    </contour>
    <contour>
      <point x="395" y="0" type="move" name="bottom"/>
    </contour>
  </outline>
</glyph>
<glyph name="t_ta-deva" format="1">
  <advance width="676"/>
  <outline>
    <component base="t_t-deva"/>
    <component base="aaMatra-deva" xOffset="370"/>
    <contour>
      <point x="573" y="658" type="move" name="imatra"/>
    </contour>
    <contour>
      <point x="523" y="0" type="move" name="bottom"/>
    </contour>
    <contour>
      <point x="524" y="658" type="move" name="top"/>
    </contour>
  </outline>
</glyph>
<glyph name="tth-deva" format="1">
  <advance width="578"/>
  <outline>
    <component base="ttha-deva"/>
    <component base="halant-deva" xOffset="204"/>
    <contour>
      <point x="393" y="658" type="move" name="top"/>
    </contour>
    <contour>
      <point x="300" y="0" type="move" name="bottom"/>
    </contour>
  </outline>
</glyph>
<glyph name="tth_compo" format="1">
  <advance width="542"/>
  <outline>
    <contour>
      <point x="330" y="630" type="line"/>
      <point x="330" y="519" type="line"/>
      <point x="114" y="519"/>
      <point x="28" y="470"/>
      <point x="28" y="349" type="curve" smooth="yes"/>
      <point x="28" y="252"/>
      <point x="108" y="180"/>
      <point x="268" y="180" type="curve" smooth="yes"/>
      <point x="409" y="180"/>
      <point x="515" y="226"/>
      <point x="515" y="346" type="curve" smooth="yes"/>
      <point x="515" y="427"/>
      <point x="450" y="484"/>
      <point x="400" y="518" type="curve"/>
      <point x="355" y="451" type="line"/>
      <point x="410" y="420"/>
      <point x="431" y="388"/>
      <point x="431" y="346" type="curve" smooth="yes"/>
      <point x="431" y="283"/>
      <point x="375" y="254"/>
      <point x="268" y="254" type="curve" smooth="yes"/>
      <point x="144" y="254"/>
      <point x="111" y="300"/>
      <point x="111" y="344" type="curve" smooth="yes"/>
      <point x="111" y="416"/>
      <point x="169" y="445"/>
      <point x="313" y="445" type="curve" smooth="yes"/>
      <point x="414" y="445" type="line"/>
      <point x="414" y="630" type="line"/>
    </contour>
  </outline>
</glyph>
<glyph name="tth_ttha-deva" format="1">
  <advance width="604"/>
  <outline>
    <contour>
      <point x="-20" y="658" type="line"/>
      <point x="-20" y="583" type="line"/>
      <point x="624" y="583" type="line"/>
      <point x="624" y="658" type="line"/>
    </contour>
    <component base="tth_compo" xOffset="32" yOffset="3"/>
    <component base="tth_compo" xOffset="32" yOffset="-402"/>
    <contour>
      <point x="406" y="658" type="move" name="top"/>
    </contour>
    <contour>
      <point x="304" y="-222" type="move" name="bottom"/>
    </contour>
  </outline>
</glyph>
